<?xml version="1.0" encoding="UTF-8"?>
<svg width="24px" height="24px" viewBox="0 0 24 24" version="1.1" xmlns="http://www.w3.org/2000/svg" xmlns:xlink="http://www.w3.org/1999/xlink">
    <g id="Clock" transform="translate(3.000000, 3.000000)" fill="#46A5DB" fill-rule="nonzero">
        <path d="M9,-1 C14.5228475,-1 19,3.4771525 19,9 C19,14.5228475 14.5228475,19 9,19 C3.4771525,19 -1,14.5228475 -1,9 C-1,3.4771525 3.4771525,-1 9,-1 Z M9,1 C4.581722,1 1,4.581722 1,9 C1,13.418278 4.581722,17 9,17 C13.418278,17 17,13.418278 17,9 C17,4.581722 13.418278,1 9,1 Z" id="Oval"></path>
        <path d="M7.99999771,8.43483056 L5.2740437,11.3122592 C4.89421493,11.7131938 4.91132457,12.3461275 5.31225917,12.7259563 C5.71319376,13.1057851 6.34612752,13.0886754 6.7259563,12.6877408 L9.99999771,9.23176944 L9.99999771,4 C9.99999771,3.44771525 9.55228475,3 8.99999771,3 C8.44771525,3 7.99999771,3.44771525 7.99999771,4 L7.99999771,8.43483056 Z" id="Path"></path>
    </g>
</svg>