<?xml version="1.0" encoding="UTF-8"?>
<svg width="40px" height="40px" viewBox="0 0 40 40" version="1.1" xmlns="http://www.w3.org/2000/svg" xmlns:xlink="http://www.w3.org/1999/xlink">
    <g id="40-record-play" transform="translate(5.000000, 5.000000)" fill="#46A5DB" fill-rule="nonzero">
        <path d="M15,-1 C23.836556,-1 31,6.163444 31,15 C31,23.836556 23.836556,31 15,31 C6.163444,31 -1,23.836556 -1,15 C-1,6.163444 6.163444,-1 15,-1 Z M15,1 C7.2680135,1 1,7.2680135 1,15 C1,22.7319865 7.2680135,29 15,29 C22.7319865,29 29,22.7319865 29,15 C29,7.2680135 22.7319865,1 15,1 Z" id="Oval"></path>
        <path d="M14.6640713,8.24083044 L21.0584679,12.5038281 C22.839744,13.6912456 22.839744,16.3087544 21.0585062,17.4961463 L14.6640713,21.7591696 C12.6704061,23.0881797 10,21.6590698 10,19.263 L10,10.737 C10,8.34093019 12.6704061,6.9118203 14.6640713,8.24083044 Z M13.4583746,9.84787081 C12.8073902,9.50804889 12,9.97635753 12,10.737 L12,19.263 C12,20.0616746 12.8901477,20.5380511 13.5546938,20.0950537 L19.9491321,15.8320281 C20.542856,15.4362456 20.542856,14.5637544 19.9490938,14.1679463 L13.5547112,9.90495792 L13.4583746,9.84787081 Z" id="Path"></path>
    </g>
</svg>