<?xml version="1.0" encoding="UTF-8"?>
<svg width="40px" height="40px" viewBox="0 0 40 40" version="1.1" xmlns="http://www.w3.org/2000/svg" xmlns:xlink="http://www.w3.org/1999/xlink">
    <g id="40-record-stop" transform="translate(5.000000, 5.000000)" fill="#46A5DB" fill-rule="nonzero">
        <path d="M15,-1 C23.836556,-1 31,6.163444 31,15 C31,23.836556 23.836556,31 15,31 C6.163444,31 -1,23.836556 -1,15 C-1,6.163444 6.163444,-1 15,-1 Z M15,1 C7.2680135,1 1,7.2680135 1,15 C1,22.7319865 7.2680135,29 15,29 C22.7319865,29 29,22.7319865 29,15 C29,7.2680135 22.7319865,1 15,1 Z" id="Oval"></path>
        <path d="M19,8 C20.6568542,8 22,9.34314575 22,11 L22,19 C22,20.6568542 20.6568542,22 19,22 L11,22 C9.34314575,22 8,20.6568542 8,19 L8,11 C8,9.34314575 9.34314575,8 11,8 L19,8 Z M19,10 L11,10 C10.4477153,10 10,10.4477153 10,11 L10,19 C10,19.5522847 10.4477153,20 11,20 L19,20 C19.5522847,20 20,19.5522847 20,19 L20,11 C20,10.4477153 19.5522847,10 19,10 Z" id="Rectangle"></path>
    </g>
</svg>
