<svg width="33" height="35" viewBox="0 0 33 35" fill="none" xmlns="http://www.w3.org/2000/svg">
<path d="M18.4939 1.94751C18.4939 1.17721 17.8694 0.552758 17.0991 0.552758C16.3288 0.552758 15.7044 1.17721 15.7044 1.94751H18.4939ZM15.7044 33.3294C15.7044 34.0997 16.3288 34.7242 17.0991 34.7242C17.8694 34.7242 18.4939 34.0997 18.4939 33.3294H15.7044ZM15.7044 1.94751V33.3294H18.4939V1.94751H15.7044Z" fill="#6894B5"/>
<path d="M1.4082 16.2437C0.637903 16.2437 0.0134515 16.8681 0.0134515 17.6384C0.0134515 18.4087 0.637903 19.0332 1.4082 19.0332V16.2437ZM31.0467 19.0332C31.817 19.0332 32.4414 18.4087 32.4414 17.6384C32.4414 16.8681 31.817 16.2437 31.0467 16.2437V19.0332ZM1.4082 19.0332L31.0467 19.0332V16.2437L1.4082 16.2437V19.0332Z" fill="#6894B5"/>
</svg>
