<?xml version="1.0" encoding="UTF-8"?>
<svg width="57px" height="48px" viewBox="0 0 57 48" version="1.1" xmlns="http://www.w3.org/2000/svg" xmlns:xlink="http://www.w3.org/1999/xlink">
    <!-- Generator: Sketch 59.1 (86144) - https://sketch.com -->
    <title>Artboard</title>
    <desc>Created with Sketch.</desc>
    <g id="Artboard" stroke="none" stroke-width="1" fill="none" fill-rule="evenodd">
        <g id="Group-540" transform="translate(1.000000, 1.000000)" fill="#FFFFFF" fill-rule="nonzero">
            <path d="M0.905,37.5 L0.905,8 C0.905,4.0815377 4.0815377,0.905 8,0.905 L17.3365,0.905 C19.4323568,0.905 21.4210065,1.83165812 22.7691597,3.43647578 L23.1587615,3.90024792 C24.8506918,5.91442415 27.3466532,7.07749 29.9772,7.07749 L42.5,7.07749 C46.41848,7.07749 49.595,10.2540154 49.595,14.1725 L49.595,15.5 C49.595,15.9998177 50.0001823,16.405 50.5,16.405 C50.9998177,16.405 51.405,15.9998177 51.405,15.5 L51.405,14.1725 C51.405,9.25438074 47.4181161,5.26749 42.5,5.26749 L29.9772,5.26749 C27.8813362,5.26749 25.8927013,4.3408277 24.5446591,2.73603667 L24.1550385,2.27224208 C22.4629831,0.258049511 19.967027,-0.905 17.3365,-0.905 L8,-0.905 C3.0819023,-0.905 -0.905,3.0819023 -0.905,8 L-0.905,37.5 C-0.905,37.9998177 -0.499817699,38.405 1.11022302e-16,38.405 C0.499817699,38.405 0.905,37.9998177 0.905,37.5 Z" id="Path"></path>
            <path d="M49.6155025,15.0579823 C53.4230888,15.1093263 56.2202393,18.6488713 55.3902392,22.3652649 L51.7465433,38.6796466 C50.725875,43.2500593 46.670034,46.5 41.987,46.5 L7.2259,46.5 C1.72929027,46.5 -2.12998472,41.084457 -0.335926007,35.8888117 L2.67401366,27.1721127 C4.06603097,23.1408557 7.86156416,20.436 12.1264,20.436 L27.5162,20.436 C29.2424159,20.436 30.7980001,19.4168014 31.4931683,17.8513865 L31.6589256,17.4520666 C32.3631269,15.8685225 33.9468382,14.8464476 35.693529,14.8700826 L49.6155025,15.0579823 Z M35.6690867,16.6799176 L35.4826898,16.6841939 C34.4954865,16.7429993 33.6244369,17.3721919 33.2638505,18.3053437 C32.3460442,20.6801528 30.0622032,22.246 27.5162,22.246 L12.1264,22.246 C8.63350062,22.246 5.52495017,24.4612831 4.38488601,27.7628883 L1.37494781,36.4795831 C-0.0132079644,40.4997218 2.97290731,44.69 7.2259,44.69 L41.987,44.69 C45.8224049,44.69 49.1441335,42.0283027 49.9800608,38.2851351 L53.6237593,21.9707416 C54.2033774,19.375454 52.2500346,16.9036726 49.5910867,16.8678176 L35.6690867,16.6799176 Z" id="Path"></path>
            <path d="M45.905,15.5 L45.905,14 C45.905,11.8432823 44.1567177,10.095 42,10.095 L7,10.095 C4.84331736,10.095 3.095,11.8432972 3.095,14 L3.095,26 C3.095,26.4998177 3.5001823,26.905 4,26.905 C4.4998177,26.905 4.905,26.4998177 4.905,26 L4.905,14 C4.905,12.8429373 5.8429481,11.905 7,11.905 L42,11.905 C43.1570823,11.905 44.095,12.8429177 44.095,14 L44.095,15.5 C44.095,15.9998177 44.5001823,16.405 45,16.405 C45.4998177,16.405 45.905,15.9998177 45.905,15.5 Z" id="Path"></path>
        </g>
    </g>
</svg>