<?xml version="1.0" encoding="UTF-8"?>
<svg width="41px" height="31px" viewBox="0 0 41 31" version="1.1" xmlns="http://www.w3.org/2000/svg" xmlns:xlink="http://www.w3.org/1999/xlink">
    <!-- Generator: Sketch 59.1 (86144) - https://sketch.com -->
    <title>Artboard</title>
    <desc>Created with Sketch.</desc>
    <g id="Artboard" stroke="none" stroke-width="1" fill="none" fill-rule="evenodd">
        <g id="small" transform="translate(1.000000, 1.000000)">
            <path d="M24.8248,-0.776855 C26.6891732,-0.776855 28.3856563,0.300536217 29.1783441,1.98800799 L30.0749413,3.89675212 C30.3391527,4.45921785 30.9046518,4.818355 31.5261,4.818355 L34.9094,4.818355 C37.5658824,4.818355 39.719345,6.97182184 39.719345,9.6283 L39.719345,24.876 C39.719345,27.5324853 37.5658853,29.685945 34.9094,29.685945 L4.44664,29.685945 C1.79018473,29.685945 -0.363285,27.5324753 -0.363285,24.876 L-0.363285,9.6283 C-0.363285,6.97183184 1.79018762,4.818355 4.44664,4.818355 L9.1441,4.818355 C9.76554815,4.818355 10.3310473,4.45921785 10.5952793,3.89670816 L11.4919636,1.98799157 C12.2846487,0.300525571 13.9810385,-0.776855 15.8454,-0.776855 L24.8248,-0.776855 Z M24.8248,1.788435 L15.8454,1.788435 C14.9753821,1.788435 14.1837601,2.29119573 13.8138207,3.07872184 L12.9171413,4.98742788 C12.2301646,6.44989675 10.7598799,7.383645 9.1441,7.383645 L4.44664,7.383645 C3.20695929,7.383645 2.202005,8.38860126 2.202005,9.6283 L2.202005,24.876 C2.202005,26.1157047 3.20695527,27.120655 4.44664,27.120655 L34.9094,27.120655 C36.1491147,27.120655 37.154055,26.1157147 37.154055,24.876 L37.154055,9.6283 C37.154055,8.38859126 36.1491107,7.383645 34.9094,7.383645 L31.5261,7.383645 C29.9103201,7.383645 28.4400354,6.44989675 27.7530559,4.98742201 L26.8564636,3.07868843 C26.4865536,2.29122484 25.69485,1.788435 24.8248,1.788435 Z" id="Path" fill="#6894B5" fill-rule="nonzero"></path>
            <path d="M20.4792,5.636265 C25.7920882,5.636265 30.099035,9.94321183 30.099035,15.2561 C30.099035,20.5689882 25.7920882,24.875935 20.4792,24.875935 C15.1663118,24.875935 10.859365,20.5689882 10.859365,15.2561 C10.859365,9.94321183 15.1663118,5.636265 20.4792,5.636265 Z M20.4792,8.201555 C16.5830824,8.201555 13.424655,11.3599824 13.424655,15.2561 C13.424655,19.1522176 16.5830824,22.310645 20.4792,22.310645 C24.3753176,22.310645 27.533745,19.1522176 27.533745,15.2561 C27.533745,11.3599824 24.3753176,8.201555 20.4792,8.201555 Z" id="Oval" fill="#6894B5" fill-rule="nonzero"></path>
            <path d="M15.6689,15.2562 C15.6689,12.5998 17.8224,10.4463 20.4789,10.4463" id="Path" stroke="#6894B5" stroke-width="2.56529" stroke-linecap="round"></path>
        </g>
    </g>
</svg>