<?xml version="1.0" encoding="UTF-8"?>
<svg width="19px" height="19px" viewBox="0 0 19 19" version="1.1" xmlns="http://www.w3.org/2000/svg" xmlns:xlink="http://www.w3.org/1999/xlink">
    <!-- Generator: Sketch 59.1 (86144) - https://sketch.com -->
    <title>Artboard</title>
    <desc>Created with Sketch.</desc>
    <g id="Artboard" stroke="none" stroke-width="1" fill="none" fill-rule="evenodd">
        <g id="check-circle" transform="translate(1.000000, 1.000000)" fill="#FFFFFF" fill-rule="nonzero">
            <path d="M15.5902,8.06223 L15.5902,8.78223 C15.5894151,10.2538033 15.1130821,11.6861704 14.2322706,12.8652089 C13.3515824,14.0441116 12.1137434,14.9065178 10.7033932,15.3237889 C9.29314511,15.7410556 7.78583704,15.6909408 6.40625268,15.1809397 C5.0266488,14.6708474 3.84871808,13.7281287 3.04815756,12.4933036 C2.24751825,11.2584442 1.86721421,9.79752872 1.9640062,8.32856894 C2.06079547,6.85965044 2.62948012,5.46142041 3.58520057,4.34243436 C4.54083728,3.22354635 5.83223027,2.44380289 7.26676894,2.11946043 C8.70125865,1.79512904 10.202038,1.943512 11.5454759,2.54250829 C12.0498932,2.76741193 12.6411246,2.54082135 12.8660283,2.03640406 C13.0909319,1.53198678 12.8643413,0.940755351 12.3599241,0.715851711 C10.6223485,-0.0588780116 8.68114697,-0.250805786 6.82571106,0.168699568 C4.97032743,0.588193103 3.30019451,1.59661984 2.06439943,3.04352564 C0.828692219,4.49032855 0.0934637565,6.29804132 -0.0316661972,8.19707106 C-0.156796677,10.0961088 0.334862189,11.9847873 1.36999998,13.5813234 C2.40516824,15.1780194 3.92845315,16.3971311 5.71271709,17.0568417 C7.49711809,17.7164944 9.44675214,17.7813156 11.2708229,17.2416063 C13.0948835,16.7019334 14.6957095,15.5866331 15.8345366,14.0621815 C16.9733548,12.5377802 17.5891849,10.685935 17.5902,8.78276328 L17.5902,8.06223 C17.5902,7.50994525 17.1424847,7.06223 16.5902,7.06223 C16.0379153,7.06223 15.5902,7.50994525 15.5902,8.06223 Z" id="Path"></path>
            <path d="M7.13020831,7.30071483 C6.73982298,6.91005163 6.10665804,6.90982636 5.71599483,7.30021169 C5.32533163,7.69059702 5.32510636,8.32376196 5.71549169,8.71442517 L8.06165169,11.0622552 C8.45237209,11.4532537 9.08619913,11.4530945 9.47672315,11.0618999 L17.2972132,3.22797989 C17.6874023,2.83712071 17.6868591,2.20395596 17.2959999,1.81376685 C16.9051407,1.42357773 16.271976,1.42412093 15.8817868,1.81498011 L8.76865472,8.9403275 L7.13020831,7.30071483 Z" id="Path"></path>
        </g>
    </g>
</svg>