<?xml version="1.0" encoding="UTF-8"?>
<svg width="23px" height="27px" viewBox="0 0 23 27" version="1.1" xmlns="http://www.w3.org/2000/svg" xmlns:xlink="http://www.w3.org/1999/xlink">
    <!-- Generator: Sketch 59.1 (86144) - https://sketch.com -->
    <title>Artboard</title>
    <desc>Created with Sketch.</desc>
    <g id="Artboard" stroke="none" stroke-width="1" fill="none" fill-rule="evenodd">
        <g id="Edit" transform="translate(1.000000, 0.000000)" fill="#94A6AD" fill-rule="nonzero">
            <path d="M9.4328,6.08281 L3,6.08281 C0.901319159,6.08281 -0.8,7.78412524 -0.8,9.88281 L-0.8,23.0005 C-0.8,25.099146 0.901330448,26.8005 3,26.8005 L15.8656,26.8005 C17.9642974,26.8005 19.6656,25.0991582 19.6656,23.0005 L19.6656,16.4416 C19.6656,15.9997722 19.3074278,15.6416 18.8656,15.6416 C18.4237722,15.6416 18.0656,15.9997722 18.0656,16.4416 L18.0656,23.0005 C18.0656,24.2155109 17.0806335,25.2005 15.8656,25.2005 L3,25.2005 C1.784991,25.2005 0.8,24.2154954 0.8,23.0005 L0.8,9.88281 C0.8,8.66778167 1.78497393,7.68281 3,7.68281 L9.4328,7.68281 C9.8746278,7.68281 10.2328,7.3246378 10.2328,6.88281 C10.2328,6.4409822 9.8746278,6.08281 9.4328,6.08281 Z" id="Path"></path>
            <path d="M16.8206,1.67913 C17.3582,0.751773 18.5406,0.444449 19.4617,0.992703 L20.3325,1.51102 C21.2535,2.05928 21.5644,3.2555 21.0269,4.18286 L21.0269,4.18286 L20.2891,5.45559 C20.159,5.68004 19.8729,5.75442 19.6499,5.62173 L16.251,3.59852 C16.028,3.46583 15.9528,3.17631 16.0829,2.95187 L16.8206,1.67913 L16.8206,1.67913 Z" id="Path"></path>
            <path d="M9.22819079,19.1299292 L9.4366094,16.7092056 L16.0410379,5.29519158 C16.2623172,4.91276867 16.1316845,4.42337134 15.7492616,4.20209206 C15.3668387,3.98081278 14.8774413,4.11144551 14.6561621,4.49386842 L8.01513206,15.9711384 C7.92153437,16.1329322 7.86477965,16.3133722 7.84874211,16.4995366 L7.58051874,19.6148758 C7.49290466,20.6322083 8.57979304,21.3415752 9.47093947,20.8333209 L12.304248,19.2178731 C12.4988165,19.1071189 12.6605551,18.9460784 12.7728617,18.7518477 L19.4033351,7.29300641 C19.6246171,6.91058504 19.4939878,6.42118681 19.1115664,6.19990486 C18.729145,5.97862291 18.2397468,6.10925222 18.0184649,6.49167359 L11.4329154,17.8728769 L9.22819079,19.1299292 Z" id="Path"></path>
        </g>
    </g>
</svg>