<?xml version="1.0" encoding="UTF-8"?>
<svg width="19px" height="17px" viewBox="0 0 19 17" version="1.1" xmlns="http://www.w3.org/2000/svg" xmlns:xlink="http://www.w3.org/1999/xlink">
    <!-- Generator: Sketch 59.1 (86144) - https://sketch.com -->
    <title>Artboard</title>
    <desc>Created with Sketch.</desc>
    <g id="Artboard" stroke="none" stroke-width="1" fill="none" fill-rule="evenodd">
        <g id="heart" transform="translate(1.000000, 1.000000)" fill="#FFFFFF" fill-rule="nonzero">
            <path d="M8.76913739,1.04933065 L8.90065539,0.92137131 C9.39356106,0.441667368 9.97774673,0.061745173 10.619914,-0.197114666 C11.2608619,-0.455495271 11.9473008,-0.58838 12.6403,-0.58838 C13.3332992,-0.58838 14.0197381,-0.455495271 14.6606707,-0.197120827 C15.3028533,0.061745173 15.8870389,0.441667368 16.3796891,0.921122688 C16.8741547,1.40200164 17.2670121,1.97382466 17.5354282,2.60403787 C17.8044324,3.23563185 17.943,3.91323026 17.943,4.59779 C17.943,5.28234974 17.8044324,5.95994815 17.5354282,6.59154213 C17.2670074,7.2217663 16.8741442,7.79360093 16.3798263,8.27432384 L9.46648631,15.0004441 C9.07830081,15.3781184 8.46000009,15.3781187 8.07181427,15.0004446 L1.15848946,8.27431969 C0.158895197,7.30180779 -0.4043,5.97897291 -0.4043,4.59779 C-0.4043,3.21661374 0.158897642,1.89376984 1.15848502,0.921264629 C2.15271206,-0.0460374588 3.49747512,-0.58797 4.89799,-0.58797 C6.29851326,-0.58797 7.64327678,-0.0460385813 8.63750047,0.921260243 L8.76913739,1.04933065 Z M14.9853202,6.84067372 C15.290038,6.5443364 15.5311829,6.19333635 15.6953718,5.80783787 C15.8589398,5.42379716 15.943,5.01274097 15.943,4.59779 C15.943,4.18283903 15.8589398,3.77178284 15.6953718,3.38774213 C15.5311866,3.00225233 15.290043,2.65125605 14.9850554,2.35464869 C14.6788482,2.05664282 14.3145994,1.81975543 13.912914,1.65783467 C13.5098676,1.49535755 13.0773069,1.41162 12.6403,1.41162 C12.2032931,1.41162 11.7707324,1.49535755 11.3676707,1.65784083 C10.9660006,1.81975543 10.6017518,2.05664282 10.2954434,2.35474714 L9.46649344,3.16126714 C9.07831096,3.53894605 8.46000884,3.53895165 8.07181953,3.16127976 L7.24283502,2.35475537 C6.62340355,1.75209891 5.77954721,1.41203 4.89799,1.41203 C4.01644176,1.41203 3.17258573,1.75209961 2.55315054,2.35475969 C1.93906358,2.95220897 1.5957,3.75870458 1.5957,4.59779 C1.5957,5.43688142 1.93906068,6.2433682 2.55315923,6.84082877 L8.76914943,12.8885024 L14.9853202,6.84067372 Z" id="Path"></path>
        </g>
    </g>
</svg>