<?xml version="1.0" encoding="UTF-8"?>
<svg width="22px" height="22px" viewBox="0 0 22 22" version="1.1" xmlns="http://www.w3.org/2000/svg" xmlns:xlink="http://www.w3.org/1999/xlink">
    <!-- Generator: Sketch 59.1 (86144) - https://sketch.com -->
    <title>Artboard</title>
    <desc>Created with Sketch.</desc>
    <g id="Artboard" stroke="none" stroke-width="1" fill="none" fill-rule="evenodd">
        <g id="help-circle" transform="translate(1.000000, 1.000000)" fill="#FFFFFF" fill-rule="nonzero">
            <path d="M10,-1 C16.0751012,-1 21,3.92488175 21,10 C21,16.0750847 16.0750847,21 10,21 C3.92488175,21 -1,16.0751012 -1,10 C-1,3.92486525 3.92486525,-1 10,-1 Z M10,1 C5.02943475,1 1,5.02943475 1,10 C1,14.9705333 5.02945279,19 10,19 C14.9705153,19 19,14.9705153 19,10 C19,5.02945279 14.9705333,1 10,1 Z" id="Path"></path>
            <path d="M7.98812402,7.43971178 L8.03317146,7.33193202 C8.18991296,6.88637441 8.49928364,6.51066206 8.9064907,6.27133791 C9.31368758,6.03202641 9.79241369,5.9445503 10.257952,6.02439781 C10.7234933,6.10425252 11.1457464,6.34628292 11.4498351,6.70756316 C11.7540796,7.06894934 11.9205357,7.52623643 11.9198048,7.99855253 C11.9198036,8.47037473 11.5529914,8.95945704 10.8651021,9.4180494 C10.5882456,9.60262016 10.2855158,9.76407586 9.98241251,9.89878827 L9.71324832,10.0113277 L9.60357258,10.0514166 C9.0796292,10.2260642 8.796469,10.792384 8.97111659,11.3163274 C9.14576417,11.8402708 9.71208404,12.123431 10.2360274,11.9487834 C10.6880585,11.7981066 11.3255819,11.5147632 11.9745015,11.0821506 C13.1616144,10.290743 13.9198132,9.27982527 13.9198132,8.0001 C13.9212643,7.05694763 13.5883102,6.14225846 12.9798954,5.41957423 C12.3716816,4.69697041 11.5271496,4.21289484 10.5960618,4.05318454 C9.66499719,3.89349157 8.70752194,4.068448 7.89311979,4.54707592 C7.07871442,5.02571908 6.45998629,5.77712772 6.14650854,6.66822798 C5.96323173,7.18921556 6.2370004,7.76013465 6.75798798,7.94341146 C7.24176216,8.11359707 7.76858953,7.88969754 7.98812402,7.43971178 Z" id="Path"></path>
            <path d="M10,16 L10.01,16 C10.5622847,16 11.01,15.5522847 11.01,15 C11.01,14.4871642 10.6239598,14.0644928 10.1266211,14.0067277 L10,14 C9.44771525,14 9,14.4477153 9,15 C9,15.5522847 9.44771525,16 10,16 Z" id="Path"></path>
        </g>
    </g>
</svg>