<?xml version="1.0" encoding="UTF-8"?>
<svg width="50px" height="50px" viewBox="0 0 50 50" version="1.1" xmlns="http://www.w3.org/2000/svg" xmlns:xlink="http://www.w3.org/1999/xlink">
    <!-- Generator: Sketch 59.1 (86144) - https://sketch.com -->
    <title>list</title>
    <desc>Created with Sketch.</desc>
    <g id="Page-1" stroke="none" stroke-width="1" fill="none" fill-rule="evenodd">
        <g id="list" fill="#FFFFFF">
            <path d="M48.75,-2e-06 C49.4403248,-2e-06 50.000035,0.559628392 50.000035,1.25 L50.000035,48.75 C50.000035,49.4403382 49.4403382,50.000035 48.75,50.000035 L1.25,50.000035 C0.559628392,50.000035 -2e-06,49.4403248 -2e-06,48.75 L-2e-06,1.25 C-2e-06,0.559641788 0.559641788,-2e-06 1.25,-2e-06 L48.75,-2e-06 Z M48.333365,1.666668 L1.666668,1.666668 L1.666668,48.333365 L48.333365,48.333365 L48.333365,1.666668 Z" id="Path" fill-rule="nonzero"></path>
            <path d="M44.5835,9.58337 C45.2738559,9.58337 45.8335,10.1430141 45.8335,10.83337 L45.8335,20.00007 C45.8335,20.6904259 45.2738559,21.25007 44.5835,21.25007 L5.8335,21.25007 C5.14314406,21.25007 4.5835,20.6904259 4.5835,20.00007 L4.5835,10.83337 C4.5835,10.1430141 5.14314406,9.58337 5.8335,9.58337 L44.5835,9.58337 Z M44.0235,11.39337 L6.3935,11.39337 L6.3935,19.44007 L44.0235,19.44007 L44.0235,11.39337 Z" id="Rectangle" fill-rule="nonzero"></path>
            <path d="M44.5832,23.3334 C45.2735559,23.3334 45.8332,23.8930441 45.8332,24.5834 L45.8332,44.5834 C45.8332,45.2737559 45.2735559,45.8334 44.5832,45.8334 L21.6665,45.8334 C20.9761441,45.8334 20.4165,45.2737559 20.4165,44.5834 L20.4165,24.5834 C20.4165,23.8930441 20.9761441,23.3334 21.6665,23.3334 L44.5832,23.3334 Z M22.2265,25.1434 L22.2265,44.0234 L44.0232,44.0234 L44.0232,25.1434 L22.2265,25.1434 Z" id="Rectangle" fill-rule="nonzero"></path>
            <path d="M17.0835,23.3334 C17.7738559,23.3334 18.3335,23.8930441 18.3335,24.5834 L18.3335,44.5834 C18.3335,45.2737559 17.7738559,45.8334 17.0835,45.8334 L5.8335,45.8334 C5.14314406,45.8334 4.5835,45.2737559 4.5835,44.5834 L4.5835,24.5834 C4.5835,23.8930441 5.14314406,23.3334 5.8335,23.3334 L17.0835,23.3334 Z M16.5235,25.1434 L6.3935,25.1434 L6.3935,44.0234 L16.5235,44.0234 L16.5235,25.1434 Z" id="Rectangle" fill-rule="nonzero"></path>
            <rect id="Rectangle" x="0" y="6.25" width="50" height="1.75"></rect>
        </g>
    </g>
</svg>