<?xml version="1.0" encoding="UTF-8"?>
<svg width="50px" height="52px" viewBox="0 0 50 52" version="1.1" xmlns="http://www.w3.org/2000/svg" xmlns:xlink="http://www.w3.org/1999/xlink">
    <!-- Generator: Sketch 59.1 (86144) - https://sketch.com -->
    <title>Artboard</title>
    <desc>Created with Sketch.</desc>
    <g id="Artboard" stroke="none" stroke-width="1" fill="none" fill-rule="evenodd">
        <g id="Group-545" fill="#FFFFFF" fill-rule="nonzero">
            <path d="M24.8408,6.66133815e-16 C33.0920977,6.66133815e-16 39.7812,6.6963625 39.7812,14.9569 C39.7812,16.8935821 38.9636595,19.3720918 37.4467132,22.2958281 C36.1628447,24.7703727 34.4122159,27.4992078 32.3110076,30.3874491 C30.6767101,32.6337925 28.925483,34.8471819 27.1752115,36.9302161 L26.5773447,37.6366317 C26.2862552,37.9780116 26.0073569,38.3012928 25.742565,38.6048686 L24.8408,39.6338001 L23.6695577,38.2947223 L23.1042553,37.6366321 L22.5064118,36.9302438 C20.756117,34.8471819 19.0048899,32.6337925 17.3705945,30.387452 C15.2694665,27.4994767 13.5187205,24.7704985 12.2347783,22.2958118 C10.717895,19.3719864 9.9004,16.8935345 9.9004,14.9569 C9.9004,6.6963625 16.5895023,6.66133815e-16 24.8408,6.66133815e-16 Z M24.0198611,36.243092 L24.8407996,37.203069 L25.3804551,36.5743338 L25.9502118,35.9009562 C27.6780707,33.8445957 29.4067568,31.6596962 31.0171824,29.4461646 C33.0749348,26.6176561 34.7844003,23.9529855 36.0264892,21.5589673 C37.435722,18.8428364 38.1812,16.5827958 38.1812,14.9569 C38.1812,7.57962979 32.2080533,1.6 24.8408,1.6 C17.4735467,1.6 11.5004,7.57962979 11.5004,14.9569 C11.5004,16.5827597 12.2458421,18.8427641 13.6550132,21.5589719 C14.8971608,23.9531033 16.6067334,26.6179024 18.6644076,29.4461509 C20.044781,31.3434754 21.5120323,33.2197541 22.9911884,35.0120978 L24.0198611,36.243092 Z" id="Path"></path>
            <path d="M25.0001,4.43774 C31.0570738,4.43774 35.967,9.33408076 35.967,15.3736 C35.967,21.4130826 31.0570705,26.3094 25.0001,26.3094 C18.9430628,26.3094 14.0332,21.4131158 14.0332,15.3736 C14.0332,9.33404753 18.9430595,4.43774 25.0001,4.43774 Z M25.0001,6.03774 C19.8257266,6.03774 15.6332,10.2186946 15.6332,15.3736 C15.6332,20.5284668 19.825728,24.7094 25.0001,24.7094 C30.1744077,24.7094 34.367,20.5284311 34.367,15.3736 C34.367,10.2187303 30.1744091,6.03774 25.0001,6.03774 Z" id="Path"></path>
            <path d="M18.3115,30.2642 C18.7533278,30.2642 19.1115,30.6223722 19.1115,31.0642 C19.1115,31.5060278 18.7533278,31.8642 18.3115,31.8642 L18.3115,31.8642 L8.42041,31.8642 C8.24905118,31.8642 8.09669792,31.9734028 8.04162289,32.1357373 L8.04162289,32.1357373 L5.7717572,38.8222 L15.6001,38.8226 C16.7132742,38.8226 17.601585,39.7280706 17.600293,40.8224488 L17.5945404,40.9727859 L16.9447572,49.5992 L24.5997572,49.5992 L24.4147662,45.3478038 C24.3670992,44.2594346 25.1967151,43.3432351 26.2657049,43.265623 L26.4129,43.2603 L45.9417572,43.2602 L44.4677572,38.5202 L35.6259,38.5208 C34.7118264,38.5208 33.9216031,37.9026456 33.6921501,37.0315759 L33.6575685,36.8753066 L32.7547572,31.8642 L31.4262,31.8642 C31.018359,31.8642 30.6817984,31.5590119 30.6324331,31.1645503 L30.6262,31.0642 C30.6262,30.6223722 30.9843722,30.2642 31.4262,30.2642 L31.4262,30.2642 L42.1028,30.2642 C42.9786026,30.2642 43.7525954,30.8340121 44.0126078,31.6702186 L44.0126078,31.6702186 L49.279786,48.6060488 C49.6802883,49.8933895 48.7182894,51.2001 47.3701,51.2001 L47.3701,51.2001 L2.67433,51.2001 C1.30470738,51.2001 0.340313194,49.8544546 0.780377108,48.5574627 L0.780377108,48.5574627 L6.52645315,31.6216744 C6.80177109,30.8101706 7.56347686,30.2642 8.42041,30.2642 L8.42041,30.2642 Z M15.6001,40.4226 L5.2287572,40.4222 L2.29554063,49.0715439 C2.21632655,49.3050101 2.36464871,49.5463676 2.59478693,49.5923044 L2.67433,49.6001 L15.3397572,49.5992 L15.9990557,40.8526658 C16.0145837,40.6463282 15.8712385,40.4670079 15.6756755,40.4297064 L15.6001,40.4226 Z M46.4387572,44.8602 L26.4129,44.8603 C26.1850636,44.8603 26.003267,45.050226 26.0132347,45.2778154 L26.0132347,45.2778154 L26.2017572,49.5992 L47.3701,49.6001 C47.6127675,49.6001 47.7928581,49.38844 47.7680469,49.1583833 L47.7519922,49.0812814 L46.4387572,44.8602 Z M42.1028,31.8642 L34.3807572,31.8642 L35.2322395,36.5917376 C35.2616338,36.754992 35.3876402,36.8801419 35.544943,36.9125672 L35.6259,36.9208 L43.9697572,36.9202 L42.4847781,32.145336 C42.4402261,32.0020556 42.3201189,31.8978498 42.1763916,31.8710009 L42.1028,31.8642 Z" id="Combined-Shape"></path>
        </g>
    </g>
</svg>