<?xml version="1.0" encoding="UTF-8"?>
<svg width="41px" height="41px" viewBox="0 0 41 41" version="1.1" xmlns="http://www.w3.org/2000/svg" xmlns:xlink="http://www.w3.org/1999/xlink">
    <!-- Generator: Sketch 59.1 (86144) - https://sketch.com -->
    <title>Artboard</title>
    <desc>Created with Sketch.</desc>
    <g id="Artboard" stroke="none" stroke-width="1" fill="none" fill-rule="evenodd">
        <g id="Maximizeweb" transform="translate(3.000000, 3.000000)" fill="#FFFFFF" fill-rule="nonzero">
            <path d="M0,19.9998 L35,19.9998 C36.3807119,19.9998 37.5,18.8805119 37.5,17.4998 C37.5,16.1190881 36.3807119,14.9998 35,14.9998 L0,14.9998 C-1.38071187,14.9998 -2.5,16.1190881 -2.5,17.4998 C-2.5,18.8805119 -1.38071187,19.9998 0,19.9998 Z" id="Path"></path>
            <path d="M20.0002,35 L20.0002,0 C20.0002,-1.38071187 18.8809119,-2.5 17.5002,-2.5 C16.1194881,-2.5 15.0002,-1.38071187 15.0002,0 L15.0002,35 C15.0002,36.3807119 16.1194881,37.5 17.5002,37.5 C18.8809119,37.5 20.0002,36.3807119 20.0002,35 Z" id="Path"></path>
        </g>
    </g>
</svg>