<?xml version="1.0" encoding="UTF-8"?>
<svg width="28px" height="32px" viewBox="0 0 28 32" version="1.1" xmlns="http://www.w3.org/2000/svg" xmlns:xlink="http://www.w3.org/1999/xlink">
    <!-- Generator: Sketch 59.1 (86144) - https://sketch.com -->
    <title>Artboard</title>
    <desc>Created with Sketch.</desc>
    <g id="Artboard" stroke="none" stroke-width="1" fill="none" fill-rule="evenodd">
        <g id="Note" fill="#6894B5" fill-rule="nonzero">
            <path d="M3.5385,1.82617 C3.5385,1.11779 2.96424,0.543527 2.25586,0.543527 C1.54747,0.543527 0.973215,1.11779 0.973215,1.82617 L3.5385,1.82617 Z M0.973215,30.6857 C0.973215,31.3941 1.54747,31.9683 2.25586,31.9683 C2.96424,31.9683 3.5385,31.3941 3.5385,30.6857 L0.973215,30.6857 Z M0.973215,1.82617 L0.973215,30.6857 L3.5385,30.6857 L3.5385,1.82617 L0.973215,1.82617 Z" id="Shape"></path>
            <path d="M2.25586,0.543527 C1.54747,0.543527 0.973215,1.11779 0.973215,1.82617 C0.973215,2.53456 1.54747,3.10882 2.25586,3.10882 L2.25586,0.543527 Z M26.3054,3.10882 C27.0138,3.10882 27.5881,2.53456 27.5881,1.82617 C27.5881,1.11779 27.0138,0.543527 26.3054,0.543527 L26.3054,3.10882 Z M2.25586,3.10882 L26.3054,3.10882 L26.3054,0.543527 L2.25586,0.543527 L2.25586,3.10882 Z" id="Shape"></path>
            <path d="M25.023,30.6855 C25.023,31.3939 25.5973,31.9682 26.3057,31.9682 C27.014,31.9682 27.5883,31.3939 27.5883,30.6855 L25.023,30.6855 Z M27.5883,1.82604 C27.5883,1.11766 27.0141,0.543398 26.3057,0.543398 C25.5973,0.543398 25.023,1.11766 25.023,1.82604 L27.5883,1.82604 Z M27.5883,30.6855 L27.5883,1.82604 L25.023,1.82604 L25.023,30.6855 L27.5883,30.6855 Z" id="Shape"></path>
            <path d="M26.3057,31.9682 C27.014,31.9682 27.5883,31.3939 27.5883,30.6855 C27.5883,29.9772 27.014,29.4029 26.3057,29.4029 L26.3057,31.9682 Z M2.25608,29.4029 C1.54769,29.4029 0.973433,29.9772 0.973433,30.6855 C0.973433,31.3939 1.54769,31.9682 2.25608,31.9682 L2.25608,29.4029 Z M26.3057,29.4029 L2.25608,29.4029 L2.25608,31.9682 L26.3057,31.9682 L26.3057,29.4029 Z" id="Shape"></path>
            <path d="M21.4961,11.1254 C22.2045,11.1254 22.7787,10.5512 22.7787,9.84277 C22.7787,9.13439 22.2045,8.56013 21.4961,8.56013 L21.4961,11.1254 Z M7.06634,8.56013 C6.35796,8.56013 5.7837,9.13439 5.7837,9.84277 C5.7837,10.5512 6.35796,11.1254 7.06634,11.1254 L7.06634,8.56013 Z M21.4961,8.56013 L7.06634,8.56013 L7.06634,11.1254 L21.4961,11.1254 L21.4961,8.56013 Z" id="Shape"></path>
            <path d="M21.4961,17.5385 C22.2045,17.5385 22.7787,16.9642 22.7787,16.2559 C22.7787,15.5475 22.2045,14.9732 21.4961,14.9732 L21.4961,17.5385 Z M7.06634,14.9732 C6.35796,14.9732 5.7837,15.5475 5.7837,16.2559 C5.7837,16.9642 6.35796,17.5385 7.06634,17.5385 L7.06634,14.9732 Z M21.4961,14.9732 L7.06634,14.9732 L7.06634,17.5385 L21.4961,17.5385 L21.4961,14.9732 Z" id="Shape"></path>
            <path d="M21.4961,23.9516 C22.2045,23.9516 22.7787,23.3773 22.7787,22.6689 C22.7787,21.9606 22.2045,21.3863 21.4961,21.3863 L21.4961,23.9516 Z M7.06634,21.3863 C6.35796,21.3863 5.7837,21.9606 5.7837,22.6689 C5.7837,23.3773 6.35796,23.9516 7.06634,23.9516 L7.06634,21.3863 Z M21.4961,21.3863 L7.06634,21.3863 L7.06634,23.9516 L21.4961,23.9516 L21.4961,21.3863 Z" id="Shape"></path>
        </g>
    </g>
</svg>