<?xml version="1.0" encoding="UTF-8"?>
<svg width="54px" height="38px" viewBox="0 0 54 38" version="1.1" xmlns="http://www.w3.org/2000/svg" xmlns:xlink="http://www.w3.org/1999/xlink">
    <!-- Generator: Sketch 59.1 (86144) - https://sketch.com -->
    <title>Artboard</title>
    <desc>Created with Sketch.</desc>
    <g id="Artboard" stroke="none" stroke-width="1" fill="none" fill-rule="evenodd">
        <g id="Group-543" fill="#FFFFFF" fill-rule="nonzero">
            <path d="M27,0.095 C38.3982668,0.095 46.8814081,6.23002123 52.9884069,18.9873407 C53.2197628,19.3174009 53.4467381,19.651961 53.6692392,19.9913476 C53.8738122,20.3035108 53.8814515,20.707185 53.6864948,21.0292846 C47.4319796,31.3215581 37.6317565,37.5 27,37.5 C16.3681567,37.5 6.56798311,31.3215701 0.313578633,21.0293231 C0.204781224,20.8503089 0.158887021,20.6454946 0.175064555,20.4451606 C0.0709008691,20.2150952 0.0640064335,19.9420418 0.178786991,19.694192 C6.24831426,6.58804009 15.2686728,0.095 27,0.095 Z M27,6.53339 C22.6072742,6.53339 19.5257543,7.01325592 16.9118476,8.03672966 C14.8611835,8.83962982 13.1608275,9.88777641 10.3192394,12.0267658 L9.61458292,12.5615004 C6.76847571,14.7370608 4.24121319,17.4349016 2.13912438,20.5413221 C8.0891493,30.0470205 17.1920721,35.69 27,35.69 C36.6573882,35.69 45.631365,30.2188097 51.5841168,20.9772992 L51.7959827,20.6435106 C51.750294,20.5868944 51.7107444,20.5238152 51.678786,20.454806 C51.5935143,20.2706744 51.507791,20.0879704 51.4216138,19.9066914 L51.5756461,20.125831 C45.6308901,11.5943098 36.667933,6.53339 27,6.53339 Z M27,1.905 C18.3289281,1.905 11.2638387,5.67635812 5.82535516,13.4136192 C6.68628341,12.5991763 7.58442373,11.835119 8.51538362,11.1234946 L9.24767283,10.5678984 C12.2041643,8.34332375 14.0183789,7.22582532 16.2519395,6.3513154 C19.0971449,5.23727677 22.397134,4.72339 27,4.72339 C34.3337503,4.72339 41.2715689,7.45307387 46.9230054,12.2832761 C41.6936427,5.2493791 35.1580987,1.905 27,1.905 Z" id="Combined-Shape"></path>
            <path d="M26.9998,8.45752 C34.3442527,8.45752 40.2921,14.1261933 40.2921,21.1118 C40.2921,28.0973933 34.3442668,33.766 26.9998,33.766 C19.6553332,33.766 13.7075,28.0973933 13.7075,21.1118 C13.7075,14.1261933 19.6553473,8.45752 26.9998,8.45752 Z M26.9998,10.26752 C20.6360377,10.26752 15.5175,15.1458091 15.5175,21.1118 C15.5175,27.0777735 20.6360201,31.956 26.9998,31.956 C33.3635799,31.956 38.4821,27.0777735 38.4821,21.1118 C38.4821,15.1458091 33.3635623,10.26752 26.9998,10.26752 Z" id="Path"></path>
            <path d="M27.3615,16.5 C29.7704247,16.5 31.7231,18.4504897 31.7231,20.8564 C31.7231,23.2622408 29.7703941,25.2128 27.3615,25.2128 C24.9526168,25.2128 23,23.2622517 23,20.8564 C23,18.4504788 24.9525863,16.5 27.3615,16.5 Z M27.3615,18.31 C25.9517844,18.31 24.81,19.450552 24.81,20.8564 C24.81,22.2621866 25.951823,23.4028 27.3615,23.4028 C28.7712041,23.4028 29.9131,22.2621594 29.9131,20.8564 C29.9131,19.4505792 28.7712428,18.31 27.3615,18.31 Z" id="Path"></path>
        </g>
    </g>
</svg>