<?xml version="1.0" encoding="UTF-8"?>
<svg width="12px" height="16px" viewBox="0 0 12 16" version="1.1" xmlns="http://www.w3.org/2000/svg" xmlns:xlink="http://www.w3.org/1999/xlink">
    <!-- Generator: Sketch 59.1 (86144) - https://sketch.com -->
    <title>Artboard</title>
    <desc>Created with Sketch.</desc>
    <g id="Artboard" stroke="none" stroke-width="1" fill="none" fill-rule="evenodd">
        <g id="pause" transform="translate(1.000000, 1.000000)" fill="#FFFFFF" fill-rule="nonzero">
            <path d="M3.20535,-0.47852 C3.75763475,-0.47852 4.20535,-0.0308047498 4.20535,0.52148 L4.20535,13.0432 C4.20535,13.5954847 3.75763475,14.0432 3.20535,14.0432 L0.07715,14.0432 C-0.47513475,14.0432 -0.92285,13.5954847 -0.92285,13.0432 L-0.92285,0.52148 C-0.92285,-0.0308047498 -0.47513475,-0.47852 0.07715,-0.47852 L3.20535,-0.47852 Z M2.20535,1.52148 L1.07715,1.52148 L1.07715,12.0432 L2.20535,12.0432 L2.20535,1.52148 Z" id="Path"></path>
            <path d="M9.4622,-0.47852 C10.0144847,-0.47852 10.4622,-0.0308047498 10.4622,0.52148 L10.4622,13.0432 C10.4622,13.5954847 10.0144847,14.0432 9.4622,14.0432 L6.334,14.0432 C5.78171525,14.0432 5.334,13.5954847 5.334,13.0432 L5.334,0.52148 C5.334,-0.0308047498 5.78171525,-0.47852 6.334,-0.47852 L9.4622,-0.47852 Z M8.4622,1.52148 L7.334,1.52148 L7.334,12.0432 L8.4622,12.0432 L8.4622,1.52148 Z" id="Path"></path>
        </g>
    </g>
</svg>