<?xml version="1.0" encoding="UTF-8"?>
<svg width="28px" height="39px" viewBox="0 0 28 39" version="1.1" xmlns="http://www.w3.org/2000/svg" xmlns:xlink="http://www.w3.org/1999/xlink">
    <!-- Generator: Sketch 59.1 (86144) - https://sketch.com -->
    <title>Artboard</title>
    <desc>Created with Sketch.</desc>
    <g id="Artboard" stroke="none" stroke-width="1" fill="none" fill-rule="evenodd">
        <g id="pin" transform="translate(1.000000, 1.000000)" fill="#FFFFFF" fill-rule="nonzero">
            <path d="M13,-1 C20.7321208,-1 27,5.26189712 27,12.9861 C27,14.7979802 26.2333556,17.1677977 24.8125281,19.9970402 C23.6090948,22.3930883 21.9681732,25.0567765 20,27.8896251 C18.4687623,30.0937154 16.8281343,32.2742178 15.1875467,34.3339825 C14.833125,34.7789984 14.4904495,35.2033812 14.1612095,35.6060223 L13,37.0261127 L11.8387905,35.6060223 L11.1629085,34.7720941 C11.0474465,34.6283888 10.9306197,34.4823536 10.8124921,34.3340312 C9.17195716,32.2743326 7.5312777,30.0937619 6.00001152,27.8896478 C4.03154507,25.0563034 2.39077368,22.3928591 1.18749996,19.9969966 C-0.233329525,17.1678812 -1,14.7980176 -1,12.9861 C-1,5.26191018 5.26790616,-1 13,-1 Z M13.7738841,31.2799698 C15.0616309,29.6251346 16.3351897,27.906745 17.5362331,26.1779355 C19.4299737,23.4522278 21.0002903,20.9031519 22.1316374,18.6506283 C23.3607096,16.2032211 24,14.2270749 24,12.9861 C24,6.91939297 19.0759074,2 13,2 C6.924118,2 2,6.91940752 2,12.9861 C2,14.2271013 2.63930505,16.2032643 3.86839304,18.6505895 C4.99959661,20.9029516 6.56976743,23.4517909 8.46377959,26.1779682 C9.66483015,27.9067679 10.9384149,29.6251892 12.2261373,31.2799953 L13,32.2648193 L13.7738841,31.2799698 Z" id="Path"></path>
            <path d="M13,5 C17.9777726,5 22,8.81234253 22,13.5 C22,18.1876575 17.9777726,22 13,22 C8.02224801,22 4,18.1876486 4,13.5 C4,8.81235144 8.02224801,5 13,5 Z M13,8 C9.64421311,8 7,10.5062278 7,13.5 C7,16.4937722 9.64421311,19 13,19 C16.3558057,19 19,16.4937831 19,13.5 C19,10.5062169 16.3558057,8 13,8 Z" id="Path"></path>
        </g>
    </g>
</svg>