<?xml version="1.0" encoding="UTF-8"?>
<svg width="26px" height="41px" viewBox="0 0 26 41" version="1.1" xmlns="http://www.w3.org/2000/svg" xmlns:xlink="http://www.w3.org/1999/xlink">
    <!-- Generator: Sketch 59.1 (86144) - https://sketch.com -->
    <title>Artboard</title>
    <desc>Created with Sketch.</desc>
    <g id="Artboard" stroke="none" stroke-width="1" fill="none" fill-rule="evenodd">
        <g id="Record-Icon" transform="translate(2.000000, 2.000000)" fill="#FFFFFF" fill-rule="nonzero">
            <path d="M11.0596,-1.5 C12.7345406,-1.5 14.3343307,-0.794531419 15.5041036,0.450800288 C16.6564226,1.67753776 17.299,3.32891677 17.299,5.04545 L17.299,18.5 C17.299,20.2165114 16.6564108,21.8679548 15.5041036,23.0946797 C14.3343409,24.3399874 12.7345583,25.0454 11.0596,25.0454 C9.38470009,25.0454 7.78481904,24.3399548 6.61512644,23.0946797 C5.46284056,21.8679775 4.82031,20.2165449 4.82031,18.5 L4.82031,5.04545 C4.82031,3.32888325 5.46282873,1.67751506 6.61510373,0.45082447 C7.78482927,-0.794498849 9.38471776,-1.5 11.0596,-1.5 Z M11.0596,1.5 C10.2206413,1.5 9.40954175,1.8576697 8.80173356,2.50475971 C8.17643375,3.17044229 7.82031,4.08573301 7.82031,5.04545 L7.82031,18.5 C7.82031,19.4597024 8.17645085,20.3750559 8.80175086,21.0407387 C9.40950338,21.6877626 10.2205902,22.0454 11.0596,22.0454 C11.89867,22.0454 12.7096791,21.6877914 13.3174964,21.0407203 C13.9428221,20.3750101 14.299,19.4596391 14.299,18.5 L14.299,5.04545 C14.299,4.08579631 13.9428392,3.17048806 13.317491,2.50475395 C12.7096407,1.85764093 11.8986189,1.5 11.0596,1.5 Z" id="Path"></path>
            <path d="M20.6168,18.0957 C20.6168,20.8395699 19.5949003,23.4660424 17.78458,25.3933378 C15.9916654,27.3020107 13.5733428,28.3684 11.0584,28.3684 C8.5434523,28.3684 6.12512704,27.3020076 4.33223521,25.393322 C2.52189631,23.4660533 1.5,20.8395955 1.5,18.0957 C1.5,17.2672729 0.828427125,16.5957 0,16.5957 C-0.828427125,16.5957 -1.5,17.2672729 -1.5,18.0957 C-1.5,21.5964388 -0.191713552,24.9589709 2.14562232,27.4472753 C4.50045044,29.9541897 7.70754413,31.3684 11.0584,31.3684 C14.4092455,31.3684 17.6163263,29.9541981 19.9711953,27.4472885 C22.3085156,24.9589407 23.6168,21.5964062 23.6168,18.0957 C23.6168,17.2672729 22.9452271,16.5957 22.1168,16.5957 C21.2883729,16.5957 20.6168,17.2672729 20.6168,18.0957 Z" id="Path"></path>
            <path d="M9.5586,30.2729 L9.5586,37.0002 C9.5586,37.8286271 10.2301729,38.5002 11.0586,38.5002 C11.8870271,38.5002 12.5586,37.8286271 12.5586,37.0002 L12.5586,30.2729 C12.5586,29.4444729 11.8870271,28.7729 11.0586,28.7729 C10.2301729,28.7729 9.5586,29.4444729 9.5586,30.2729 Z" id="Path"></path>
            <path d="M4.73828,38.5 L17.3765,38.5 C18.2049271,38.5 18.8765,37.8284271 18.8765,37 C18.8765,36.1715729 18.2049271,35.5 17.3765,35.5 L4.73828,35.5 C3.90985288,35.5 3.23828,36.1715729 3.23828,37 C3.23828,37.8284271 3.90985288,38.5 4.73828,38.5 Z" id="Path"></path>
        </g>
    </g>
</svg>