<?xml version="1.0" encoding="UTF-8"?>
<svg width="15px" height="15px" viewBox="0 0 15 15" version="1.1" xmlns="http://www.w3.org/2000/svg" xmlns:xlink="http://www.w3.org/1999/xlink">
    <!-- Generator: Sketch 59.1 (86144) - https://sketch.com -->
    <title>Path</title>
    <desc>Created with Sketch.</desc>
    <g id="Page-1" stroke="none" stroke-width="1" fill="none" fill-rule="evenodd">
        <g id="small" transform="translate(1.000000, 1.000000)" fill="#3D5058" fill-rule="nonzero">
            <path d="M6.5,4.379 L11.1893398,-0.310660172 C11.7751263,-0.896446609 12.7248737,-0.896446609 13.3106602,-0.310660172 C13.859835,0.238514613 13.8941584,1.10757702 13.4136304,1.69673776 L13.3106602,1.81066017 L8.62,6.5 L13.3106602,11.1893398 C13.859835,11.7385146 13.8941584,12.607577 13.4136304,13.1967378 L13.3106602,13.3106602 C12.7614854,13.859835 11.892423,13.8941584 11.3032622,13.4136304 L11.1893398,13.3106602 L6.5,8.62 L1.81066017,13.3106602 C1.26148539,13.859835 0.392422977,13.8941584 -0.196737762,13.4136304 L-0.310660172,13.3106602 C-0.859834957,12.7614854 -0.894158381,11.892423 -0.413630444,11.3032622 L-0.310660172,11.1893398 L4.379,6.5 L-0.310660172,1.81066017 C-0.859834957,1.26148539 -0.894158381,0.392422977 -0.413630444,-0.196737762 L-0.310660172,-0.310660172 C0.238514613,-0.859834957 1.10757702,-0.894158381 1.69673776,-0.413630444 L1.81066017,-0.310660172 L6.5,4.379 L11.1893398,-0.310660172 L6.5,4.379 Z" id="Shape"></path>
        </g>
    </g>
</svg>