<?xml version="1.0" encoding="UTF-8"?>
<svg width="52px" height="50px" viewBox="0 0 52 50" version="1.1" xmlns="http://www.w3.org/2000/svg" xmlns:xlink="http://www.w3.org/1999/xlink">
    <!-- Generator: Sketch 59.1 (86144) - https://sketch.com -->
    <title>Artboard</title>
    <desc>Created with Sketch.</desc>
    <g id="Artboard" stroke="none" stroke-width="1" fill="none" fill-rule="evenodd">
        <g id="scenes" transform="translate(0.000000, 1.000000)" fill="#FFFFFF" fill-rule="nonzero">
            <path d="M46.57372,11.3043 C47.3229053,11.3043 47.93024,11.9116347 47.93024,12.66082 L47.93024,47.02608 C47.93024,47.7752653 47.3229053,48.3826 46.57372,48.3826 L5.42586,48.3826 C4.67667469,48.3826 4.06934,47.7752653 4.06934,47.02608 L4.06934,12.66082 C4.06934,11.9116347 4.67667469,11.3043 5.42586,11.3043 L46.57372,11.3043 Z M46.12024,13.1143 L5.87934,13.1143 L5.87934,46.5726 L46.12024,46.5726 L46.12024,13.1143 Z" id="Rectangle"></path>
            <path d="M32.55648,17.1826 C33.3056653,17.1826 33.913,17.7899347 33.913,18.53912 L33.913,20.34782 C33.913,21.0970053 33.3056653,21.70434 32.55648,21.70434 L19.44342,21.70434 C18.6942347,21.70434 18.0869,21.0970053 18.0869,20.34782 L18.0869,18.53912 C18.0869,17.7899347 18.6942347,17.1826 19.44342,17.1826 L32.55648,17.1826 Z M19.8969,18.9926 L19.8969,19.89434 L32.103,19.89434 L32.103,18.9926 L19.8969,18.9926 Z" id="Rectangle"></path>
            <path d="M36.62628,28.0348 C37.3754653,28.0348 37.9828,28.6421347 37.9828,29.39132 L37.9828,40.24348 C37.9828,40.9926653 37.3754653,41.6 36.62628,41.6 L15.37412,41.6 C14.6249347,41.6 14.0176,40.9926653 14.0176,40.24348 L14.0176,29.39132 C14.0176,28.6421347 14.6249347,28.0348 15.37412,28.0348 L36.62628,28.0348 Z M15.8276,29.8448 L15.8276,39.79 L36.1728,39.79 L36.1728,29.8448 L15.8276,29.8448 Z" id="Rectangle"></path>
            <path d="M50.64348,4.06958 C51.3926653,4.06958 52,4.67691469 52,5.4261 L52,11.75654 C52,12.5057253 51.3926653,13.11306 50.64348,13.11306 L1.35652,13.11306 C0.607334691,13.11306 0,12.5057253 0,11.75654 L0,5.4261 C0,4.67691469 0.607334691,4.06958 1.35652,4.06958 L50.64348,4.06958 Z M50.19,5.87958 L1.81,5.87958 L1.81,11.30306 L50.19,11.30306 L50.19,5.87958 Z" id="Rectangle"></path>
            <path d="M51.6933306,4.52134913 L46.1737306,-0.340110869 C45.7606745,-0.703776995 45.2295107,-0.90435 44.6794,-0.90435 L6.47493,-0.90435 C5.85934786,-0.90435 5.27038082,-0.65333669 4.84404665,-0.209285816 L0.251941816,4.57367609 C-0.0939673261,4.93396191 -0.0823127267,5.50644604 0.277973093,5.85235518 C0.638258912,6.19826433 1.21074304,6.18660973 1.55665218,5.82632391 L6.14875518,1.04336391 C6.2340226,0.954553122 6.35181709,0.90435 6.47493,0.90435 L44.6794,0.90435 C44.7894216,0.90435 44.8956747,0.944472267 44.9783975,1.01730375 L50.4978694,5.87865087 C50.8726779,6.20876839 51.4441334,6.17253917 51.7742509,5.79773064 C52.1043684,5.42292212 52.0681392,4.85146665 51.6933306,4.52134913 Z" id="Path"></path>
        </g>
    </g>
</svg>