<?xml version="1.0" encoding="UTF-8"?>
<svg width="50px" height="51px" viewBox="0 0 50 51" version="1.1" xmlns="http://www.w3.org/2000/svg" xmlns:xlink="http://www.w3.org/1999/xlink">
    <!-- Generator: Sketch 59.1 (86144) - https://sketch.com -->
    <title>Artboard</title>
    <desc>Created with Sketch.</desc>
    <g id="Artboard" stroke="none" stroke-width="1" fill="none" fill-rule="evenodd">
        <g id="Search-Icon" fill="#3D5058" fill-rule="nonzero">
            <path d="M22.5562,0 C35.0161357,0 45.1125,10.1324177 45.1125,22.6261 C45.1125,27.7928654 43.3857798,32.5557853 40.479255,36.3652389 L49.1240906,45.0414566 C50.2935775,46.2151117 50.2901985,48.1146036 49.1165434,49.2840906 C47.9428883,50.4535775 46.0433964,50.4501985 44.8739094,49.2765434 L44.8739094,49.2765434 L36.2413774,40.6135899 C32.4462146,43.5233817 27.702839,45.2521 22.5562,45.2521 C10.0963322,45.2521 0,35.11975 0,22.6261 C0,10.1324356 10.0963464,0 22.5562,0 Z M22.5562,6 C13.4148568,6 6,13.4413611 6,22.6261 C6,31.8108151 13.4148331,39.2521 22.5562,39.2521 C26.9988773,39.2521 31.0337496,37.4945561 34.0078872,34.6334972 C34.0811417,34.538416 34.1612258,34.4483332 34.2476566,34.3622094 C34.3284911,34.281662 34.4127688,34.2066782 34.5000139,34.1372573 C37.3569073,31.1516517 39.1125,27.0952725 39.1125,22.6261 C39.1125,13.441348 31.6976301,6 22.5562,6 Z" id="Combined-Shape"></path>
        </g>
    </g>
</svg>