<?xml version="1.0" encoding="UTF-8"?>
<svg width="19px" height="18px" viewBox="0 0 19 18" version="1.1" xmlns="http://www.w3.org/2000/svg" xmlns:xlink="http://www.w3.org/1999/xlink">
    <!-- Generator: Sketch 59.1 (86144) - https://sketch.com -->
    <title>Artboard</title>
    <desc>Created with Sketch.</desc>
    <g id="Artboard" stroke="none" stroke-width="1" fill="none" fill-rule="evenodd">
        <g id="star" transform="translate(1.000000, 1.000000)" fill="#FFFFFF" fill-rule="nonzero">
            <path d="M5.68872126,4.94222113 L7.87289767,0.514169375 C8.23963761,-0.229334417 9.29981655,-0.229337027 9.66656015,0.514164958 L11.8507662,4.94222173 L16.734932,5.65663911 C17.5546209,5.77653675 17.8814219,6.78399165 17.2881917,7.36221586 L13.7544261,10.8065935 L14.5884296,15.6728789 C14.7284604,16.4899376 13.870671,17.1127991 13.1370853,16.7267349 L8.76972952,14.4283264 L4.40236398,16.7267353 C3.66877606,17.1127999 2.81098577,16.4899336 2.95102134,15.6728735 L3.78505058,10.8065959 L0.251233803,7.36222121 C-0.34200398,6.78399848 -0.0152036449,5.7765356 0.804489814,5.65663884 L5.68872126,4.94222113 Z M7.25002233,6.29804063 C7.10453782,6.59298611 6.82333224,6.79754306 6.49792019,6.84514116 L3.09655106,7.34266024 L5.5574662,9.74128879 C5.79313901,9.97099664 5.9007025,10.3019552 5.84510866,10.6263265 L5.2646909,14.0128715 L8.30401602,12.4133647 C8.59553946,12.259945 8.94392143,12.2599451 9.23544474,12.4133651 L12.274771,14.0128715 L11.6943704,10.6263211 C11.6387791,10.3019542 11.7463406,9.97100057 11.9820083,9.74129414 L14.4428917,7.34265977 L11.041568,6.84514089 C10.7161584,6.79754253 10.4349548,6.59298766 10.2894698,6.29804504 L8.76973557,3.21707664 L7.25002233,6.29804063 Z" id="Path"></path>
        </g>
    </g>
</svg>