<?xml version="1.0" encoding="UTF-8"?>
<svg width="20px" height="17px" viewBox="0 0 20 17" version="1.1" xmlns="http://www.w3.org/2000/svg" xmlns:xlink="http://www.w3.org/1999/xlink">
    <!-- Generator: Sketch 59.1 (86144) - https://sketch.com -->
    <title>Artboard</title>
    <desc>Created with Sketch.</desc>
    <g id="Artboard" stroke="none" stroke-width="1" fill="none" fill-rule="evenodd">
        <g id="truck" transform="translate(1.000000, 1.000000)" fill="#FFFFFF" fill-rule="nonzero">
            <path d="M11.8978,-0.58691 C12.4500847,-0.58691 12.8978,-0.13919475 12.8978,0.41309 L12.8978,10.3044 C12.8978,10.8566847 12.4500847,11.3044 11.8978,11.3044 L0.16699,11.3044 C-0.38529475,11.3044 -0.83301,10.8566847 -0.83301,10.3044 L-0.83301,0.41309 C-0.83301,-0.13919475 -0.38529475,-0.58691 0.16699,-0.58691 L11.8978,-0.58691 Z M1.16699,1.41309 L1.16699,9.3044 L10.8978,9.3044 L10.8978,1.41309 L1.16699,1.41309 Z" id="Path"></path>
            <path d="M15.0257,3.21729 C15.2861662,3.21729 15.536354,3.31891643 15.7230405,3.50055004 L18.0691405,5.78315004 C18.2626412,5.97141337 18.3718,6.22991669 18.3718,6.49989 L18.3718,10.3042 C18.3718,10.8564847 17.9240847,11.3042 17.3718,11.3042 L11.8975,11.3042 C11.3452153,11.3042 10.8975,10.8564847 10.8975,10.3042 L10.8975,4.21729 C10.8975,3.66500525 11.3452153,3.21729 11.8975,3.21729 L15.0257,3.21729 Z M14.6194996,5.21729 L12.8975,5.21729 L12.8975,9.3042 L16.3718,9.3042 L16.3718,6.92216234 L14.6194996,5.21729 Z" id="Path"></path>
            <path d="M3.68657,9.3042 C5.31260748,9.3042 6.6417,10.5972909 6.6417,12.2064 C6.6417,13.8154329 5.31258371,15.1085 3.68657,15.1085 C2.06056398,15.1085 0.73145,13.8154306 0.73145,12.2064 C0.73145,10.5972932 2.06054021,9.3042 3.68657,9.3042 Z M3.68657,11.3042 C3.15300654,11.3042 2.73145,11.7143391 2.73145,12.2064 C2.73145,12.698368 3.15301456,13.1085 3.68657,13.1085 C4.22013466,13.1085 4.6417,12.6983687 4.6417,12.2064 C4.6417,11.7143384 4.22014268,11.3042 3.68657,11.3042 Z" id="Path"></path>
            <path d="M13.8526,9.3042 C15.4786437,9.3042 16.8077,10.5972877 16.8077,12.2064 C16.8077,13.8154362 15.4786199,15.1085 13.8526,15.1085 C12.2265801,15.1085 10.8975,13.8154362 10.8975,12.2064 C10.8975,10.5972877 12.2265563,9.3042 13.8526,9.3042 Z M13.8526,11.3042 C13.3190319,11.3042 12.8975,11.7143238 12.8975,12.2064 C12.8975,12.6983833 13.3190399,13.1085 13.8526,13.1085 C14.3861601,13.1085 14.8077,12.6983833 14.8077,12.2064 C14.8077,11.7143238 14.3861681,11.3042 13.8526,11.3042 Z" id="Path"></path>
        </g>
    </g>
</svg>