<?xml version="1.0" encoding="UTF-8"?>
<svg width="24px" height="26px" viewBox="0 0 24 26" version="1.1" xmlns="http://www.w3.org/2000/svg" xmlns:xlink="http://www.w3.org/1999/xlink">
    <!-- Generator: Sketch 59.1 (86144) - https://sketch.com -->
    <title>Artboard</title>
    <desc>Created with Sketch.</desc>
    <g id="Artboard" stroke="none" stroke-width="1" fill="none" fill-rule="evenodd">
        <g id="trash-icon" transform="translate(1.000000, 1.000000)">
            <path d="M0.5,6 L21.5,6 C22.0522847,6 22.5,5.55228475 22.5,5 C22.5,4.44771525 22.0522847,4 21.5,4 L0.5,4 C-0.0522847498,4 -0.5,4.44771525 -0.5,5 C-0.5,5.55228475 -0.0522847498,6 0.5,6 Z" id="Path" fill="#94A6AD" fill-rule="nonzero"></path>
            <path d="M6.33301,4.99967 L6.33301,2.66634 C6.33301,2.0475 6.57884,1.45401 7.0164,1.01643 C7.454,0.57884 8.0475,0.33301 8.6663,0.33301 L13.333,0.33301 C13.9518,0.33301 14.5453,0.57884 14.9829,1.01643 C15.4205,1.45401 15.6663,2.0475 15.6663,2.66634 L15.6663,4.99967 M19.1663,4.99967 L18.1663,21.333 C18.1663,21.9518 17.9205,22.5453 17.4829,22.9829 C17.0453,23.4205 16.4518,23.6663 15.833,23.6663 L6.16634,23.6663 C5.5475,23.6663 5.16634,23.6663 4.49963,22.9829 C4.06205,22.5453 3.83301,21.9518 3.83301,21.333 L2.83301,4.99967 L19.1663,4.99967 Z" id="Shape" stroke="#94A6AD" stroke-width="1.6" stroke-linecap="round" stroke-linejoin="round"></path>
            <path d="M7.2,10 L7.2,19 C7.2,19.4418278 7.5581722,19.8 8,19.8 C8.4418278,19.8 8.8,19.4418278 8.8,19 L8.8,10 C8.8,9.5581722 8.4418278,9.2 8,9.2 C7.5581722,9.2 7.2,9.5581722 7.2,10 Z" id="Path" fill="#94A6AD" fill-rule="nonzero"></path>
            <path d="M10.2,10 L10.2,19 C10.2,19.4418278 10.5581722,19.8 11,19.8 C11.4418278,19.8 11.8,19.4418278 11.8,19 L11.8,10 C11.8,9.5581722 11.4418278,9.2 11,9.2 C10.5581722,9.2 10.2,9.5581722 10.2,10 Z" id="Path" fill="#94A6AD" fill-rule="nonzero"></path>
            <path d="M13.2,10 L13.2,19 C13.2,19.4418278 13.5581722,19.8 14,19.8 C14.4418278,19.8 14.8,19.4418278 14.8,19 L14.8,10 C14.8,9.5581722 14.4418278,9.2 14,9.2 C13.5581722,9.2 13.2,9.5581722 13.2,10 Z" id="Path" fill="#94A6AD" fill-rule="nonzero"></path>
        </g>
    </g>
</svg>