<?xml version="1.0" encoding="UTF-8"?>
<svg width="52px" height="63px" viewBox="0 0 52 63" version="1.1" xmlns="http://www.w3.org/2000/svg" xmlns:xlink="http://www.w3.org/1999/xlink">
    <!-- Generator: Sketch 59.1 (86144) - https://sketch.com -->
    <title>Artboard</title>
    <desc>Created with Sketch.</desc>
    <g id="Artboard" stroke="none" stroke-width="1" fill="none" fill-rule="evenodd">
        <g id="Group-541" transform="translate(1.000000, 1.000000)" fill="#FFFFFF" fill-rule="nonzero">
            <path d="M27.0564255,7.66358545 L27.6533355,7.28973129 L28.1623284,7.77655226 C28.3793884,7.98415705 28.5644899,8.18137696 28.8734054,8.53656576 L29.7242388,9.53007853 C30.1026176,9.9693448 30.3791887,10.2770768 30.6672393,10.5737553 L30.9195934,10.8281542 C32.2986287,12.1903706 33.6843826,13.011286 35.3267499,13.2558892 C35.5977343,13.2960731 35.8480424,13.4244799 36.0312208,13.6150226 C36.2211165,13.8128087 36.325,14.0627024 36.325,14.3268 L36.325,21.6456 C36.325,27.5914399 31.1636999,32.4195 24.7865,32.4195 C18.4093001,32.4195 13.248,27.5914399 13.248,21.6456 C13.248,20.2406575 13.2864296,18.38782 13.3468693,16.3758511 L13.4140376,14.3215333 C13.4239057,14.058796 13.5357066,13.8122241 13.7310209,13.6199619 C13.9199644,13.4341978 14.1737429,13.3136271 14.4447281,13.2831504 C16.1324737,13.0936637 18.4883546,12.3597458 20.8917689,11.2968248 C23.1506859,10.2978413 25.2328534,9.10517804 26.6577581,7.97720521 L26.9769668,7.71843653 L27.0564255,7.66358545 Z M27.4464326,9.65439904 C25.9133882,10.8058909 23.8456919,11.9695794 21.6238412,12.9521707 C19.3081183,13.9763098 17.0221113,14.717087 15.2015304,15.0062135 L15.1396043,16.9936895 C15.0892501,18.7698292 15.058,20.3936461 15.058,21.6456 C15.058,26.5638066 19.3829333,30.6095 24.7865,30.6095 C30.1900667,30.6095 34.515,26.5638066 34.515,21.6456 L34.515,14.9470585 C32.6815666,14.5522252 31.1317495,13.5818878 29.6475584,12.1157982 C29.2650287,11.7378772 28.9518359,11.4005895 28.5274093,10.9130373 L27.8622321,10.1369505 L27.4464326,9.65439904 Z" id="Path"></path>
            <path d="M11.8460286,16.7423955 L13.6435714,16.5304045 L13.6068298,16.0976958 L13.5795903,15.6436171 L13.5540157,15.0785613 L13.5339831,14.4487876 C13.5197573,13.8967008 13.5119,13.2760388 13.5119,12.5839 C13.5119,6.07178997 18.5210807,0.905 24.8743,0.905 C31.2276979,0.905 36.2746,6.1102354 36.2746,12.6222 C36.2746,12.9120352 36.2163138,13.3167074 36.1075637,13.7969161 C36.0434387,14.0800729 35.9636698,14.3817764 35.8718199,14.6943117 C35.8105491,14.9027964 35.7462236,15.1083805 35.6809065,15.3070123 L35.4540553,15.9586203 L37.1471447,16.5985797 L37.2934426,16.1896515 C37.4007687,15.8786237 37.5080051,15.5462066 37.6083801,15.2046633 C37.7103646,14.8576435 37.7996967,14.5197695 37.872862,14.1966932 C38.0087511,13.5966467 38.0846,13.0700397 38.0846,12.6222 C38.0846,5.12289815 32.240059,-0.905 24.8743,-0.905 C17.5086824,-0.905 11.7019,5.08448748 11.7019,12.5839 L11.7056957,13.4011764 L11.7167074,14.1511568 C11.7263286,14.6289621 11.7403849,15.0626547 11.7581253,15.4537371 L11.7922368,16.0870357 L11.8117975,16.3691676 C11.8244719,16.5356722 11.8362368,16.6593674 11.8460286,16.7423955 Z" id="Path"></path>
            <path d="M14.1028,21.7033 C12.9645312,21.7033 12.0163,20.6891866 12.0163,19.409 C12.0163,18.1288134 12.9645312,17.1147 14.1028,17.1147 L14.1028,15.3047 C11.9367125,15.3047 10.2063,17.1553399 10.2063,19.409 C10.2063,21.6626601 11.9367125,23.5133 14.1028,23.5133 L14.1028,21.7033 Z" id="Path"></path>
            <path d="M35.8975,23.5133 C38.063508,23.5133 39.7939,21.6626392 39.7939,19.409 C39.7939,17.1553608 38.063508,15.3047 35.8975,15.3047 L35.8975,17.1147 C37.0356793,17.1147 37.9839,18.1288256 37.9839,19.409 C37.9839,20.6891744 37.0356793,21.7033 35.8975,21.7033 L35.8975,23.5133 Z" id="Path"></path>
            <path d="M17.8044,32.5756921 L11.4908023,34.3770281 C4.65985566,36.3260338 -0.05051,42.5682369 -0.05051,49.6717 L-0.05051,56 C-0.05051,59.261224 2.59325865,61.905 5.85449,61.905 L44.9998,61.905 C48.2610177,61.905 50.9048,59.2612177 50.9048,56 L50.9048,49.8039 C50.9048,42.6344741 46.1080878,36.3512433 39.1921527,34.4614065 L32.2621,32.5677182 L32.2621,29.8601 C32.2621,29.3602823 31.8569177,28.9551 31.3571,28.9551 C30.8572823,28.9551 30.4521,29.3602823 30.4521,29.8601 L30.4521,33.9494818 L38.715048,36.2073937 C44.8439529,37.8821679 49.0948,43.4503681 49.0948,49.8039 L49.0948,56 C49.0948,58.2615823 47.2613823,60.095 44.9998,60.095 L5.85449,60.095 C3.59289517,60.095 1.75949,58.2615898 1.75949,56 L1.75949,49.6717 C1.75949,43.3766168 5.93381272,37.8447809 11.9874054,36.1175698 L19.6144,33.9415079 L19.6144,29.8601 C19.6144,29.3602823 19.2092177,28.9551 18.7094,28.9551 C18.2095823,28.9551 17.8044,29.3602823 17.8044,29.8601 L17.8044,32.5756921 Z" id="Path"></path>
            <path d="M17.6298068,34.2112749 C19.2481563,36.5695266 21.9978757,38.0168 24.9999,38.0168 C28.0019243,38.0168 30.7516437,36.5695266 32.3699932,34.2112749 C32.6528044,33.7991637 32.547986,33.2358179 32.1358749,32.9530068 C31.7237637,32.6701956 31.1604179,32.775014 30.8776068,33.1871251 C29.5968855,35.0533865 27.4054796,36.2068 24.9999,36.2068 C22.5943204,36.2068 20.4029145,35.0533865 19.1221932,33.1871251 C18.8393821,32.775014 18.2760363,32.6701956 17.8639251,32.9530068 C17.451814,33.2358179 17.3469956,33.7991637 17.6298068,34.2112749 Z" id="Path"></path>
            <path d="M40.3076,46.9231 C41.4121695,46.9231 42.3076,47.8185305 42.3076,48.9231 L42.3076,49.61541 C42.3076,50.7199795 41.4121695,51.61541 40.3076,51.61541 L32.3418,51.61541 C31.2372305,51.61541 30.3418,50.7199795 30.3418,49.61541 L30.3418,48.9231 C30.3418,47.8185305 31.2372305,46.9231 32.3418,46.9231 L40.3076,46.9231 Z M40.3076,48.7331 L32.3418,48.7331 C32.2368659,48.7331 32.1518,48.8181659 32.1518,48.9231 L32.1518,49.61541 C32.1518,49.7203441 32.2368659,49.80541 32.3418,49.80541 L40.3076,49.80541 C40.4125341,49.80541 40.4976,49.7203441 40.4976,49.61541 L40.4976,48.9231 C40.4976,48.8181659 40.4125341,48.7331 40.3076,48.7331 Z" id="Rectangle"></path>
        </g>
    </g>
</svg>