<?xml version="1.0" encoding="UTF-8"?>
<svg width="54px" height="56px" viewBox="0 0 54 56" version="1.1" xmlns="http://www.w3.org/2000/svg" xmlns:xlink="http://www.w3.org/1999/xlink">
    <!-- Generator: Sketch 59.1 (86144) - https://sketch.com -->
    <title>Group 547</title>
    <desc>Created with Sketch.</desc>
    <g id="Page-1" stroke="none" stroke-width="1" fill="none" fill-rule="evenodd">
        <g id="Group-547" transform="translate(1.000000, 1.000000)" fill="#FFFFFF" fill-rule="nonzero">
            <path d="M17.6557,28.9924 C18.1685358,28.9924 18.5912072,29.3784402 18.6489723,29.8757789 L18.6557,29.9924 L18.6557,34.9385115 L10.6716494,37.9151925 C5.29583891,39.9195162 1.69764796,44.9949409 1.56622519,50.7089971 L1.5625,51.0331 L1.5625,53.1953 C1.5625,53.7475847 1.11478475,54.1953 0.5625,54.1953 C0.0496641609,54.1953 -0.373007161,53.8092598 -0.430772269,53.3119211 L-0.4375,53.1953 L-0.4375,51.0331 C-0.4375,44.4696857 3.56888961,38.5850307 9.6454611,36.1673876 L9.97296109,36.0412036 L16.6557,33.5496885 L16.6557,29.9924 C16.6557,29.4401153 17.1034153,28.9924 17.6557,28.9924 Z M33.4495,28.9924 C33.9623358,28.9924 34.3850072,29.3784402 34.4427723,29.8757789 L34.4495,29.9924 L34.4495,33.5363211 L41.8461739,36.1439876 C48.1355896,38.3611853 52.3781676,44.2404298 52.5225938,50.8833814 L52.5264,51.2337 L52.5264,52.6172 C52.5264,53.1694847 52.0786847,53.6172 51.5264,53.6172 C51.0135642,53.6172 50.5908928,53.2311598 50.5331277,52.7338211 L50.5264,52.6172 L50.5264,51.2337 C50.5264,45.4040311 46.9159532,40.1969321 41.4848038,38.1411588 L41.1812115,38.0302073 L32.4495,34.9518789 L32.4495,29.9924 C32.4495,29.4401153 32.8972153,28.9924 33.4495,28.9924 Z" id="Shape"></path>
            <path d="M16.4142983,35.3604303 C18.4108146,38.275031 21.8045151,40.0645 25.5109,40.0645 C29.2172193,40.0645 32.6110056,38.2750016 34.6075017,35.3604303 C34.9196145,34.9047945 34.8032661,34.2824112 34.3476303,33.9702983 C33.8919945,33.6581855 33.2696112,33.7745339 32.9574983,34.2301697 C31.3338142,36.600494 28.5573247,38.0645 25.5109,38.0645 C22.4644124,38.0645 19.6880075,36.6005257 18.0643017,34.2301697 C17.7521888,33.7745339 17.1298055,33.6581855 16.6741697,33.9702983 C16.2185339,34.2824112 16.1021855,34.9047945 16.4142983,35.3604303 Z" id="Path"></path>
            <path d="M25.5107,-0.85938 C32.6947096,-0.85938 38.5185,4.96441043 38.5185,12.14842 L38.5185,19.95312 C38.5185,27.1371296 32.6947096,32.96092 25.5107,32.96092 C18.3266904,32.96092 12.5029,27.1371296 12.5029,19.95312 L12.5029,12.14842 C12.5029,4.96441043 18.3266904,-0.85938 25.5107,-0.85938 Z M25.5107,1.14062 C19.4312599,1.14062 14.5029,6.06897993 14.5029,12.14842 L14.5029,19.95312 C14.5029,26.0325601 19.4312599,30.96092 25.5107,30.96092 C31.5901401,30.96092 36.5185,26.0325601 36.5185,19.95312 L36.5185,12.14842 C36.5185,6.06897993 31.5901401,1.14062 25.5107,1.14062 Z" id="Rectangle"></path>
        </g>
    </g>
</svg>