<svg [attr.width]="width" [attr.height]="height" viewBox="13 0 1582 461" fill="none" xmlns="http://www.w3.org/2000/svg">
<path d="M683.12 239.322C681.855 239.322 681.011 238.83 680.589 237.846L649.583 172.458C649.442 172.036 649.161 171.825 648.739 171.825H612.881C612.319 171.825 612.038 172.107 612.038 172.669V237.213C612.038 238.619 611.334 239.322 609.928 239.322H599.171C597.765 239.322 597.062 238.619 597.062 237.213V93.7819C597.062 92.3757 597.765 91.6726 599.171 91.6726H653.801C665.894 91.6726 675.667 95.4693 683.12 103.063C690.573 110.516 694.299 120.289 694.299 132.382C694.299 142.225 691.628 150.592 686.284 157.482C680.941 164.372 673.699 168.802 664.559 170.771C663.996 171.052 663.856 171.403 664.137 171.825L695.776 236.791C695.917 237.072 695.987 237.424 695.987 237.846C695.987 238.83 695.424 239.322 694.299 239.322H683.12ZM612.881 104.75C612.319 104.75 612.038 105.031 612.038 105.594V158.959C612.038 159.521 612.319 159.802 612.881 159.802H652.114C660.27 159.802 666.879 157.271 671.941 152.209C677.003 147.147 679.534 140.538 679.534 132.382C679.534 124.226 677.003 117.617 671.941 112.554C666.879 107.352 660.27 104.75 652.114 104.75H612.881ZM821.764 102.641C821.764 104.047 821.061 104.75 819.655 104.75H742.033C741.471 104.75 741.19 105.031 741.19 105.594V157.693C741.19 158.256 741.471 158.537 742.033 158.537H796.453C797.859 158.537 798.562 159.24 798.562 160.646V169.505C798.562 170.911 797.859 171.614 796.453 171.614H742.033C741.471 171.614 741.19 171.896 741.19 172.458V225.401C741.19 225.963 741.471 226.245 742.033 226.245H819.655C821.061 226.245 821.764 226.948 821.764 228.354V237.213C821.764 238.619 821.061 239.322 819.655 239.322H728.323C726.917 239.322 726.214 238.619 726.214 237.213V93.7819C726.214 92.3757 726.917 91.6726 728.323 91.6726H819.655C821.061 91.6726 821.764 92.3757 821.764 93.7819V102.641ZM896.532 241.01C880.642 241.01 868.056 237.424 858.776 230.252C849.635 223.081 845.065 213.519 845.065 201.566V195.027C845.065 193.621 845.768 192.918 847.175 192.918H857.51C858.916 192.918 859.619 193.621 859.619 195.027V200.722C859.619 208.878 862.994 215.487 869.744 220.55C876.494 225.471 885.845 227.932 897.797 227.932C908.625 227.932 916.851 225.682 922.476 221.182C928.101 216.542 930.913 210.425 930.913 202.832C930.913 197.91 929.577 193.691 926.905 190.176C924.374 186.661 920.367 183.356 914.882 180.262C909.539 177.169 901.946 173.583 892.102 169.505C881.556 165.287 873.33 161.63 867.424 158.537C861.658 155.303 856.948 151.225 853.291 146.303C849.776 141.241 848.018 134.913 848.018 127.319C848.018 115.507 852.096 106.367 860.252 99.8988C868.549 93.2897 879.868 89.9852 894.211 89.9852C909.82 89.9852 922.124 93.6413 931.124 100.953C940.124 108.266 944.623 117.968 944.623 130.062V134.702C944.623 136.108 943.92 136.811 942.514 136.811H931.968C930.561 136.811 929.858 136.108 929.858 134.702V130.905C929.858 122.749 926.624 116.07 920.156 110.867C913.828 105.664 904.969 103.063 893.579 103.063C883.595 103.063 875.931 105.102 870.588 109.18C865.244 113.258 862.572 119.164 862.572 126.898C862.572 131.96 863.838 136.178 866.369 139.553C869.041 142.788 872.767 145.67 877.548 148.201C882.47 150.592 889.993 153.756 900.117 157.693C910.383 161.912 918.609 165.849 924.796 169.505C931.124 173.161 936.186 177.661 939.983 183.004C943.92 188.207 945.889 194.606 945.889 202.199C945.889 214.011 941.53 223.432 932.811 230.463C924.093 237.494 912 241.01 896.532 241.01ZM1033.21 91.4617C1045.58 91.4617 1055.5 95.2584 1062.95 102.852C1070.54 110.445 1074.34 120.429 1074.34 132.804C1074.34 145.037 1070.47 154.881 1062.74 162.334C1055.15 169.786 1045.09 173.513 1032.58 173.513H991.446C990.884 173.513 990.602 173.794 990.602 174.356V237.213C990.602 238.619 989.899 239.322 988.493 239.322H977.736C976.33 239.322 975.626 238.619 975.626 237.213V93.571C975.626 92.1648 976.33 91.4617 977.736 91.4617H1033.21ZM1031.52 161.068C1039.82 161.068 1046.57 158.537 1051.77 153.475C1056.97 148.272 1059.58 141.452 1059.58 133.015C1059.58 124.437 1056.97 117.546 1051.77 112.344C1046.57 107.141 1039.82 104.539 1031.52 104.539H991.446C990.884 104.539 990.602 104.82 990.602 105.383V160.224C990.602 160.787 990.884 161.068 991.446 161.068H1031.52ZM1147.49 241.01C1137.51 241.01 1128.72 238.971 1121.12 234.893C1113.53 230.815 1107.62 225.12 1103.41 217.808C1099.33 210.355 1097.29 201.777 1097.29 192.074V138.921C1097.29 129.218 1099.33 120.71 1103.41 113.398C1107.62 105.945 1113.53 100.18 1121.12 96.1021C1128.72 92.0242 1137.51 89.9852 1147.49 89.9852C1157.47 89.9852 1166.26 92.0242 1173.86 96.1021C1181.59 100.18 1187.5 105.945 1191.57 113.398C1195.79 120.71 1197.9 129.218 1197.9 138.921V192.074C1197.9 201.777 1195.79 210.355 1191.57 217.808C1187.5 225.12 1181.59 230.815 1173.86 234.893C1166.26 238.971 1157.47 241.01 1147.49 241.01ZM1147.49 228.143C1158.18 228.143 1166.75 224.909 1173.22 218.44C1179.69 211.972 1182.93 203.394 1182.93 192.707V138.71C1182.93 128.023 1179.69 119.445 1173.22 112.976C1166.75 106.367 1158.18 103.063 1147.49 103.063C1136.94 103.063 1128.44 106.367 1121.97 112.976C1115.5 119.445 1112.26 128.023 1112.26 138.71V192.707C1112.26 203.394 1115.5 211.972 1121.97 218.44C1128.44 224.909 1136.94 228.143 1147.49 228.143ZM1321.1 93.7819C1321.1 92.3757 1321.8 91.6726 1323.21 91.6726H1333.97C1335.37 91.6726 1336.07 92.3757 1336.07 93.7819V237.213C1336.07 238.619 1335.37 239.322 1333.97 239.322H1323.42C1322.43 239.322 1321.59 238.83 1320.89 237.846L1248.96 120.781C1248.82 120.359 1248.61 120.218 1248.33 120.359C1248.05 120.359 1247.91 120.57 1247.91 120.992L1248.12 237.213C1248.12 238.619 1247.41 239.322 1246.01 239.322H1235.25C1233.84 239.322 1233.14 238.619 1233.14 237.213V93.7819C1233.14 92.3757 1233.84 91.6726 1235.25 91.6726H1245.8C1246.78 91.6726 1247.63 92.1648 1248.33 93.1491L1320.25 210.214C1320.4 210.636 1320.61 210.847 1320.89 210.847C1321.17 210.706 1321.31 210.425 1321.31 210.003L1321.1 93.7819ZM1418.29 241.01C1402.4 241.01 1389.82 237.424 1380.53 230.252C1371.39 223.081 1366.82 213.519 1366.82 201.566V195.027C1366.82 193.621 1367.53 192.918 1368.93 192.918H1379.27C1380.67 192.918 1381.38 193.621 1381.38 195.027V200.722C1381.38 208.878 1384.75 215.487 1391.5 220.55C1398.25 225.471 1407.6 227.932 1419.56 227.932C1430.38 227.932 1438.61 225.682 1444.23 221.182C1449.86 216.542 1452.67 210.425 1452.67 202.832C1452.67 197.91 1451.34 193.691 1448.66 190.176C1446.13 186.661 1442.13 183.356 1436.64 180.262C1431.3 177.169 1423.7 173.583 1413.86 169.505C1403.31 165.287 1395.09 161.63 1389.18 158.537C1383.42 155.303 1378.71 151.225 1375.05 146.303C1371.53 141.241 1369.78 134.913 1369.78 127.319C1369.78 115.507 1373.85 106.367 1382.01 99.8988C1390.31 93.2897 1401.63 89.9852 1415.97 89.9852C1431.58 89.9852 1443.88 93.6413 1452.88 100.953C1461.88 108.266 1466.38 117.968 1466.38 130.062V134.702C1466.38 136.108 1465.68 136.811 1464.27 136.811H1453.73C1452.32 136.811 1451.62 136.108 1451.62 134.702V130.905C1451.62 122.749 1448.38 116.07 1441.91 110.867C1435.59 105.664 1426.73 103.063 1415.34 103.063C1405.35 103.063 1397.69 105.102 1392.35 109.18C1387 113.258 1384.33 119.164 1384.33 126.898C1384.33 131.96 1385.6 136.178 1388.13 139.553C1390.8 142.788 1394.53 145.67 1399.31 148.201C1404.23 150.592 1411.75 153.756 1421.88 157.693C1432.14 161.912 1440.37 165.849 1446.55 169.505C1452.88 173.161 1457.94 177.661 1461.74 183.004C1465.68 188.207 1467.65 194.606 1467.65 202.199C1467.65 214.011 1463.29 223.432 1454.57 230.463C1445.85 237.494 1433.76 241.01 1418.29 241.01ZM1594.41 102.641C1594.41 104.047 1593.71 104.75 1592.3 104.75H1514.68C1514.12 104.75 1513.84 105.031 1513.84 105.594V157.693C1513.84 158.256 1514.12 158.537 1514.68 158.537H1569.1C1570.51 158.537 1571.21 159.24 1571.21 160.646V169.505C1571.21 170.911 1570.51 171.614 1569.1 171.614H1514.68C1514.12 171.614 1513.84 171.896 1513.84 172.458V225.401C1513.84 225.963 1514.12 226.245 1514.68 226.245H1592.3C1593.71 226.245 1594.41 226.948 1594.41 228.354V237.213C1594.41 238.619 1593.71 239.322 1592.3 239.322H1500.97C1499.56 239.322 1498.86 238.619 1498.86 237.213V93.7819C1498.86 92.3757 1499.56 91.6726 1500.97 91.6726H1592.3C1593.71 91.6726 1594.41 92.3757 1594.41 93.7819V102.641Z" fill="#3D5058"/>
<path d="M73.9406 92.5183C83.2214 92.5183 91.3773 94.4167 98.4082 98.2134C105.439 102.01 110.853 107.424 114.65 114.455C118.587 121.345 120.556 129.29 120.556 138.29C120.556 147.149 118.517 154.953 114.439 161.703C110.501 168.452 104.877 173.726 97.5645 177.522C90.3929 181.178 82.0964 183.006 72.675 183.006H42.7232C42.0201 183.006 41.6686 183.358 41.6686 184.061V237.848C41.6686 238.551 41.3873 239.184 40.8248 239.746C40.403 240.168 39.8405 240.379 39.1374 240.379H14.4588C13.7557 240.379 13.123 240.168 12.5605 239.746C12.1386 239.184 11.9277 238.551 11.9277 237.848V95.0495C11.9277 94.3464 12.1386 93.7839 12.5605 93.362C13.123 92.7996 13.7557 92.5183 14.4588 92.5183H73.9406ZM69.5111 159.172C75.9795 159.172 81.1824 157.344 85.1197 153.687C89.0571 149.891 91.0257 144.969 91.0257 138.922C91.0257 132.735 89.0571 127.743 85.1197 123.947C81.1824 120.15 75.9795 118.252 69.5111 118.252H42.7232C42.0201 118.252 41.6686 118.603 41.6686 119.306V158.117C41.6686 158.82 42.0201 159.172 42.7232 159.172H69.5111ZM241.35 115.72C241.35 116.424 241.069 117.056 240.506 117.619C240.084 118.041 239.522 118.252 238.819 118.252H169.634C168.931 118.252 168.58 118.603 168.58 119.306V152C168.58 152.703 168.931 153.055 169.634 153.055H214.984C215.687 153.055 216.249 153.336 216.671 153.898C217.234 154.32 217.515 154.883 217.515 155.586V176.046C217.515 176.749 217.234 177.382 216.671 177.944C216.249 178.366 215.687 178.577 214.984 178.577H169.634C168.931 178.577 168.58 178.929 168.58 179.632V213.802C168.58 214.505 168.931 214.857 169.634 214.857H238.819C239.522 214.857 240.084 215.138 240.506 215.7C241.069 216.122 241.35 216.685 241.35 217.388V237.848C241.35 238.551 241.069 239.184 240.506 239.746C240.084 240.168 239.522 240.379 238.819 240.379H141.37C140.667 240.379 140.034 240.168 139.472 239.746C139.05 239.184 138.839 238.551 138.839 237.848V95.2604C138.839 94.5573 139.05 93.9948 139.472 93.573C140.034 93.0105 140.667 92.7292 141.37 92.7292H238.819C239.522 92.7292 240.084 93.0105 240.506 93.573C241.069 93.9948 241.35 94.5573 241.35 95.2604V115.72ZM433.456 240.379C432.753 240.379 432.12 240.168 431.558 239.746C431.136 239.184 430.925 238.551 430.925 237.848V95.2604C430.925 94.5573 431.136 93.9948 431.558 93.573C432.12 93.0105 432.753 92.7292 433.456 92.7292H458.135C458.838 92.7292 459.4 93.0105 459.822 93.573C460.384 93.9948 460.666 94.5573 460.666 95.2604V154.32C460.666 154.742 460.806 155.023 461.087 155.164C461.369 155.164 461.65 155.023 461.931 154.742L510.656 94.2057C511.499 93.2214 512.554 92.7292 513.82 92.7292H541.662C542.787 92.7292 543.49 93.0808 543.771 93.7839C544.053 94.3464 543.912 95.0495 543.349 95.8932L496.312 156.008C495.891 156.57 495.82 157.062 496.102 157.484L545.881 237.426C546.162 238.27 546.302 238.762 546.302 238.902C546.302 239.887 545.599 240.379 544.193 240.379H516.351C514.944 240.379 513.96 239.816 513.398 238.691L475.852 177.944C475.712 177.663 475.501 177.522 475.22 177.522C474.938 177.522 474.657 177.663 474.376 177.944L461.087 194.608C460.806 195.17 460.666 195.592 460.666 195.873V237.848C460.666 238.551 460.384 239.184 459.822 239.746C459.4 240.168 458.838 240.379 458.135 240.379H433.456Z" fill="#3D5058"/>
<path d="M252.445 258.533H14.7643C13.9554 258.533 13.2996 259.189 13.2996 259.998V292.956C13.2996 293.765 13.9554 294.42 14.7643 294.42H273.16C277.608 294.42 281.549 291.553 282.917 287.321L334.165 128.794C334.601 127.444 336.51 127.441 336.951 128.79L435.907 431.596C438.962 440.945 452.153 441.045 455.35 431.743L502.196 295.409C502.399 294.818 502.956 294.42 503.581 294.42H1593.06C1593.87 294.42 1594.53 293.765 1594.53 292.956V259.998C1594.53 259.189 1593.87 258.533 1593.06 258.533H482.729C478.364 258.533 474.477 261.298 473.044 265.422L446.844 340.826C446.383 342.153 444.498 342.132 444.066 340.795L344.015 30.7668C340.942 21.2439 327.445 21.312 324.468 30.8654L253.844 257.504C253.653 258.116 253.087 258.533 252.445 258.533Z" fill="url(#paint_logo_full_dark)"/>
<defs>
<linearGradient id="paint_logo_full_dark" x1="13.2996" y1="139.304" x2="1356.01" y2="1074.34" gradientUnits="userSpaceOnUse">
<stop stop-color="#155184"/>
<stop offset="0.270833" stop-color="#3194C6"/>
<stop offset="0.729167" stop-color="#7FC4D2"/>
<stop offset="1" stop-color="#A5DEEA"/>
</linearGradient>
</defs>
</svg>
