<svg [attr.width]="width" [attr.height]="height" viewBox="13 0 1582 461" fill="none" xmlns="http://www.w3.org/2000/svg">
<path d="M683.005 239.65C681.739 239.65 680.895 239.158 680.473 238.174L649.467 172.786C649.326 172.364 649.045 172.153 648.623 172.153H612.765C612.203 172.153 611.922 172.435 611.922 172.997V237.541C611.922 238.947 611.219 239.65 609.813 239.65H599.055C597.649 239.65 596.946 238.947 596.946 237.541V94.11C596.946 92.7038 597.649 92.0007 599.055 92.0007H653.686C665.779 92.0007 675.552 95.7974 683.005 103.391C690.457 110.844 694.184 120.617 694.184 132.71C694.184 142.553 691.512 150.92 686.168 157.81C680.825 164.701 673.583 169.13 664.443 171.099C663.88 171.38 663.74 171.732 664.021 172.153L695.66 237.119C695.801 237.4 695.871 237.752 695.871 238.174C695.871 239.158 695.309 239.65 694.184 239.65H683.005ZM612.765 105.078C612.203 105.078 611.922 105.36 611.922 105.922V159.287C611.922 159.849 612.203 160.131 612.765 160.131H651.998C660.154 160.131 666.763 157.599 671.825 152.537C676.888 147.475 679.419 140.866 679.419 132.71C679.419 124.554 676.888 117.945 671.825 112.883C666.763 107.68 660.154 105.078 651.998 105.078H612.765ZM821.649 102.969C821.649 104.375 820.945 105.078 819.539 105.078H741.918C741.355 105.078 741.074 105.36 741.074 105.922V158.021C741.074 158.584 741.355 158.865 741.918 158.865H796.337C797.743 158.865 798.446 159.568 798.446 160.974V169.833C798.446 171.239 797.743 171.942 796.337 171.942H741.918C741.355 171.942 741.074 172.224 741.074 172.786V225.729C741.074 226.292 741.355 226.573 741.918 226.573H819.539C820.945 226.573 821.649 227.276 821.649 228.682V237.541C821.649 238.947 820.945 239.65 819.539 239.65H728.207C726.801 239.65 726.098 238.947 726.098 237.541V94.11C726.098 92.7038 726.801 92.0007 728.207 92.0007H819.539C820.945 92.0007 821.649 92.7038 821.649 94.11V102.969ZM896.416 241.338C880.526 241.338 867.941 237.752 858.66 230.58C849.52 223.409 844.95 213.847 844.95 201.894V195.355C844.95 193.949 845.653 193.246 847.059 193.246H857.394C858.8 193.246 859.504 193.949 859.504 195.355V201.051C859.504 209.206 862.878 215.816 869.628 220.878C876.378 225.799 885.729 228.26 897.682 228.26C908.509 228.26 916.735 226.01 922.36 221.511C927.985 216.87 930.797 210.753 930.797 203.16C930.797 198.238 929.461 194.02 926.79 190.504C924.258 186.989 920.251 183.684 914.767 180.591C909.423 177.497 901.83 173.911 891.986 169.833C881.44 165.615 873.214 161.959 867.308 158.865C861.543 155.631 856.832 151.553 853.176 146.631C849.66 141.569 847.903 135.241 847.903 127.648C847.903 115.836 851.98 106.695 860.136 100.227C868.433 93.6179 879.753 90.3133 894.096 90.3133C909.704 90.3133 922.009 93.9694 931.008 101.282C940.008 108.594 944.508 118.296 944.508 130.39V135.03C944.508 136.436 943.804 137.139 942.398 137.139H931.852C930.446 137.139 929.743 136.436 929.743 135.03V131.233C929.743 123.077 926.508 116.398 920.04 111.195C913.712 105.992 904.853 103.391 893.463 103.391C883.479 103.391 875.815 105.43 870.472 109.508C865.128 113.586 862.457 119.492 862.457 127.226C862.457 132.288 863.722 136.507 866.253 139.881C868.925 143.116 872.651 145.998 877.432 148.529C882.354 150.92 889.877 154.084 900.002 158.021C910.267 162.24 918.493 166.177 924.68 169.833C931.008 173.489 936.07 177.989 939.867 183.333C943.804 188.535 945.773 194.934 945.773 202.527C945.773 214.339 941.414 223.76 932.696 230.791C923.977 237.822 911.884 241.338 896.416 241.338ZM1033.09 91.7898C1045.47 91.7898 1055.38 95.5865 1062.83 103.18C1070.43 110.773 1074.23 120.757 1074.23 133.132C1074.23 145.366 1070.36 155.209 1062.62 162.662C1055.03 170.114 1044.98 173.841 1032.46 173.841H991.33C990.768 173.841 990.487 174.122 990.487 174.685V237.541C990.487 238.947 989.784 239.65 988.377 239.65H977.62C976.214 239.65 975.511 238.947 975.511 237.541V93.8991C975.511 92.4929 976.214 91.7898 977.62 91.7898H1033.09ZM1031.41 161.396C1039.7 161.396 1046.45 158.865 1051.66 153.803C1056.86 148.6 1059.46 141.78 1059.46 133.343C1059.46 124.765 1056.86 117.875 1051.66 112.672C1046.45 107.469 1039.7 104.867 1031.41 104.867H991.33C990.768 104.867 990.487 105.149 990.487 105.711V160.552C990.487 161.115 990.768 161.396 991.33 161.396H1031.41ZM1147.37 241.338C1137.39 241.338 1128.6 239.299 1121.01 235.221C1113.41 231.143 1107.51 225.448 1103.29 218.136C1099.21 210.683 1097.17 202.105 1097.17 192.403V139.249C1097.17 129.546 1099.21 121.039 1103.29 113.726C1107.51 106.274 1113.41 100.508 1121.01 96.4302C1128.6 92.3523 1137.39 90.3133 1147.37 90.3133C1157.36 90.3133 1166.15 92.3523 1173.74 96.4302C1181.47 100.508 1187.38 106.274 1191.46 113.726C1195.68 121.039 1197.79 129.546 1197.79 139.249V192.403C1197.79 202.105 1195.68 210.683 1191.46 218.136C1187.38 225.448 1181.47 231.143 1173.74 235.221C1166.15 239.299 1157.36 241.338 1147.37 241.338ZM1147.37 228.471C1158.06 228.471 1166.64 225.237 1173.11 218.769C1179.58 212.3 1182.81 203.722 1182.81 193.035V139.038C1182.81 128.351 1179.58 119.773 1173.11 113.304C1166.64 106.695 1158.06 103.391 1147.37 103.391C1136.83 103.391 1128.32 106.695 1121.85 113.304C1115.38 119.773 1112.15 128.351 1112.15 139.038V193.035C1112.15 203.722 1115.38 212.3 1121.85 218.769C1128.32 225.237 1136.83 228.471 1147.37 228.471ZM1320.98 94.11C1320.98 92.7038 1321.69 92.0007 1323.09 92.0007H1333.85C1335.26 92.0007 1335.96 92.7038 1335.96 94.11V237.541C1335.96 238.947 1335.26 239.65 1333.85 239.65H1323.3C1322.32 239.65 1321.48 239.158 1320.77 238.174L1248.85 121.109C1248.7 120.687 1248.49 120.546 1248.21 120.687C1247.93 120.687 1247.79 120.898 1247.79 121.32L1248 237.541C1248 238.947 1247.3 239.65 1245.89 239.65H1235.14C1233.73 239.65 1233.03 238.947 1233.03 237.541V94.11C1233.03 92.7038 1233.73 92.0007 1235.14 92.0007H1245.68C1246.67 92.0007 1247.51 92.4929 1248.21 93.4772L1320.14 210.542C1320.28 210.964 1320.49 211.175 1320.77 211.175C1321.05 211.034 1321.19 210.753 1321.19 210.331L1320.98 94.11ZM1418.17 241.338C1402.28 241.338 1389.7 237.752 1380.42 230.58C1371.28 223.409 1366.71 213.847 1366.71 201.894V195.355C1366.71 193.949 1367.41 193.246 1368.82 193.246H1379.15C1380.56 193.246 1381.26 193.949 1381.26 195.355V201.051C1381.26 209.206 1384.64 215.816 1391.39 220.878C1398.14 225.799 1407.49 228.26 1419.44 228.26C1430.27 228.26 1438.49 226.01 1444.12 221.511C1449.74 216.87 1452.56 210.753 1452.56 203.16C1452.56 198.238 1451.22 194.02 1448.55 190.504C1446.02 186.989 1442.01 183.684 1436.53 180.591C1431.18 177.497 1423.59 173.911 1413.75 169.833C1403.2 165.615 1394.97 161.959 1389.07 158.865C1383.3 155.631 1378.59 151.553 1374.93 146.631C1371.42 141.569 1369.66 135.241 1369.66 127.648C1369.66 115.836 1373.74 106.695 1381.89 100.227C1390.19 93.6179 1401.51 90.3133 1415.85 90.3133C1431.46 90.3133 1443.77 93.9694 1452.77 101.282C1461.77 108.594 1466.27 118.296 1466.27 130.39V135.03C1466.27 136.436 1465.56 137.139 1464.16 137.139H1453.61C1452.2 137.139 1451.5 136.436 1451.5 135.03V131.233C1451.5 123.077 1448.27 116.398 1441.8 111.195C1435.47 105.992 1426.61 103.391 1415.22 103.391C1405.24 103.391 1397.57 105.43 1392.23 109.508C1386.89 113.586 1384.22 119.492 1384.22 127.226C1384.22 132.288 1385.48 136.507 1388.01 139.881C1390.68 143.116 1394.41 145.998 1399.19 148.529C1404.11 150.92 1411.64 154.084 1421.76 158.021C1432.03 162.24 1440.25 166.177 1446.44 169.833C1452.77 173.489 1457.83 177.989 1461.63 183.333C1465.56 188.535 1467.53 194.934 1467.53 202.527C1467.53 214.339 1463.17 223.76 1454.45 230.791C1445.74 237.822 1433.64 241.338 1418.17 241.338ZM1594.3 102.969C1594.3 104.375 1593.59 105.078 1592.19 105.078H1514.57C1514 105.078 1513.72 105.36 1513.72 105.922V158.021C1513.72 158.584 1514 158.865 1514.57 158.865H1568.98C1570.39 158.865 1571.09 159.568 1571.09 160.974V169.833C1571.09 171.239 1570.39 171.942 1568.98 171.942H1514.57C1514 171.942 1513.72 172.224 1513.72 172.786V225.729C1513.72 226.292 1514 226.573 1514.57 226.573H1592.19C1593.59 226.573 1594.3 227.276 1594.3 228.682V237.541C1594.3 238.947 1593.59 239.65 1592.19 239.65H1500.86C1499.45 239.65 1498.75 238.947 1498.75 237.541V94.11C1498.75 92.7038 1499.45 92.0007 1500.86 92.0007H1592.19C1593.59 92.0007 1594.3 92.7038 1594.3 94.11V102.969Z" fill="#F1F5F8"/>
<path d="M73.8248 92.8464C83.1057 92.8464 91.2615 94.7448 98.2925 98.5415C105.323 102.338 110.737 107.752 114.534 114.783C118.471 121.673 120.44 129.618 120.44 138.618C120.44 147.477 118.401 155.281 114.323 162.031C110.386 168.781 104.761 174.054 97.4488 177.85C90.2772 181.507 81.9807 183.335 72.5593 183.335H42.6075C41.9044 183.335 41.5528 183.686 41.5528 184.389V238.176C41.5528 238.879 41.2716 239.512 40.7091 240.074C40.2873 240.496 39.7248 240.707 39.0217 240.707H14.3431C13.64 240.707 13.0072 240.496 12.4448 240.074C12.0229 239.512 11.812 238.879 11.812 238.176V95.3776C11.812 94.6745 12.0229 94.112 12.4448 93.6902C13.0072 93.1277 13.64 92.8464 14.3431 92.8464H73.8248ZM69.3953 159.5C75.8638 159.5 81.0667 157.672 85.004 154.016C88.9413 150.219 90.91 145.297 90.91 139.251C90.91 133.063 88.9413 128.071 85.004 124.275C81.0667 120.478 75.8638 118.58 69.3953 118.58H42.6075C41.9044 118.58 41.5528 118.931 41.5528 119.634V158.445C41.5528 159.148 41.9044 159.5 42.6075 159.5H69.3953ZM241.234 116.049C241.234 116.752 240.953 117.384 240.39 117.947C239.969 118.369 239.406 118.58 238.703 118.58H169.519C168.816 118.58 168.464 118.931 168.464 119.634V152.328C168.464 153.031 168.816 153.383 169.519 153.383H214.868C215.571 153.383 216.134 153.664 216.556 154.227C217.118 154.648 217.399 155.211 217.399 155.914V176.374C217.399 177.077 217.118 177.71 216.556 178.272C216.134 178.694 215.571 178.905 214.868 178.905H169.519C168.816 178.905 168.464 179.257 168.464 179.96V214.13C168.464 214.833 168.816 215.185 169.519 215.185H238.703C239.406 215.185 239.969 215.466 240.39 216.028C240.953 216.45 241.234 217.013 241.234 217.716V238.176C241.234 238.879 240.953 239.512 240.39 240.074C239.969 240.496 239.406 240.707 238.703 240.707H141.254C140.551 240.707 139.918 240.496 139.356 240.074C138.934 239.512 138.723 238.879 138.723 238.176V95.5885C138.723 94.8854 138.934 94.3229 139.356 93.9011C139.918 93.3386 140.551 93.0574 141.254 93.0574H238.703C239.406 93.0574 239.969 93.3386 240.39 93.9011C240.953 94.3229 241.234 94.8854 241.234 95.5885V116.049ZM433.34 240.707C432.637 240.707 432.004 240.496 431.442 240.074C431.02 239.512 430.809 238.879 430.809 238.176V95.5885C430.809 94.8854 431.02 94.3229 431.442 93.9011C432.004 93.3386 432.637 93.0574 433.34 93.0574H458.019C458.722 93.0574 459.284 93.3386 459.706 93.9011C460.269 94.3229 460.55 94.8854 460.55 95.5885V154.648C460.55 155.07 460.691 155.351 460.972 155.492C461.253 155.492 461.534 155.351 461.815 155.07L510.54 94.5339C511.384 93.5495 512.438 93.0574 513.704 93.0574H541.546C542.671 93.0574 543.374 93.4089 543.656 94.112C543.937 94.6745 543.796 95.3776 543.234 96.2213L496.197 156.336C495.775 156.898 495.705 157.39 495.986 157.812L545.765 237.754C546.046 238.598 546.187 239.09 546.187 239.231C546.187 240.215 545.484 240.707 544.077 240.707H516.235C514.829 240.707 513.844 240.145 513.282 239.02L475.737 178.272C475.596 177.991 475.385 177.85 475.104 177.85C474.823 177.85 474.541 177.991 474.26 178.272L460.972 194.936C460.691 195.498 460.55 195.92 460.55 196.201V238.176C460.55 238.879 460.269 239.512 459.706 240.074C459.284 240.496 458.722 240.707 458.019 240.707H433.34Z" fill="#F1F5F8"/>
<path d="M252.33 258.861H14.6489C13.8399 258.861 13.1841 259.517 13.1841 260.326V293.284C13.1841 294.093 13.8399 294.749 14.6489 294.749H273.045C277.493 294.749 281.433 291.881 282.801 287.649L334.049 129.122C334.486 127.772 336.394 127.769 336.835 129.118L435.791 431.924C438.847 441.273 452.038 441.373 455.234 432.071L502.08 295.737C502.284 295.146 502.84 294.749 503.466 294.749H1592.95C1593.76 294.749 1594.41 294.093 1594.41 293.284V260.326C1594.41 259.517 1593.76 258.861 1592.95 258.861H482.614C478.248 258.861 474.361 261.626 472.928 265.75L446.729 341.154C446.267 342.481 444.383 342.46 443.951 341.123L343.9 31.0949C340.826 21.5721 327.329 21.6402 324.352 31.1935L253.728 257.832C253.538 258.445 252.971 258.861 252.33 258.861Z" fill="#F1F5F8"/>
</svg>
